<svg width="204" height="71" viewBox="0 0 204 71" fill="none" xmlns="http://www.w3.org/2000/svg">
<g clip-path="url(#clip0_16_933)">
<g clip-path="url(#clip1_16_933)">
<path fill-rule="evenodd" clip-rule="evenodd" d="M113.593 47.6712C107.72 52.0135 99.1781 54.327 91.8105 54.327C81.4887 54.327 72.2347 50.5186 65.1874 44.1832C64.6536 43.6849 65.1162 43.0086 65.7925 43.4001C73.3737 47.8136 82.7344 50.4474 92.4155 50.4474C98.9289 50.4474 106.119 49.0949 112.739 46.2831C113.735 45.8916 114.554 46.9594 113.593 47.6712Z" fill="url(#paint0_linear_16_933)"/>
<path fill-rule="evenodd" clip-rule="evenodd" d="M116.049 44.8608C115.302 43.8998 111.066 44.3981 109.18 44.6472C108.61 44.7184 108.504 44.2201 109.038 43.8642C112.419 41.4795 117.936 42.1914 118.576 42.9744C119.217 43.7574 118.398 49.3098 115.231 51.9437C114.732 52.3352 114.27 52.1216 114.483 51.5877C115.195 49.8081 116.797 45.8574 116.049 44.8608Z" fill="url(#paint1_linear_16_933)"/>
<path fill-rule="evenodd" clip-rule="evenodd" d="M109.286 27.1357V24.8222C109.286 24.4663 109.535 24.2527 109.855 24.2527H120.177C120.498 24.2527 120.782 24.5019 120.782 24.8222V26.7798C120.782 27.1001 120.498 27.5272 119.999 28.2391L114.66 35.8558C116.654 35.8202 118.754 36.105 120.533 37.1016C120.925 37.3151 121.031 37.671 121.067 37.9914V40.4472C121.067 40.8031 120.711 41.1947 120.32 40.9811C117.152 39.3083 112.916 39.1303 109.428 41.0167C109.072 41.1947 108.681 40.8387 108.681 40.4828V38.1337C108.681 37.7778 108.681 37.1371 109.072 36.5677L115.266 27.7052H109.891C109.571 27.7052 109.286 27.456 109.286 27.1357ZM71.665 41.4794H68.5329C68.2481 41.4438 67.999 41.2303 67.9634 40.9455V24.8578C67.9634 24.5375 68.2481 24.2883 68.5684 24.2883H71.487C71.8073 24.2883 72.0209 24.5375 72.0565 24.8222V26.9222H72.1277C72.8751 24.8934 74.3344 23.9324 76.2564 23.9324C78.214 23.9324 79.4597 24.8934 80.3139 26.9222C81.0613 24.8934 82.8054 23.9324 84.6562 23.9324C85.9731 23.9324 87.3968 24.4663 88.2866 25.712C89.2832 27.0645 89.0696 29.0221 89.0696 30.7661V40.9455C89.0696 41.2658 88.7849 41.515 88.4645 41.515H85.368C85.0477 41.4794 84.7985 41.2303 84.7985 40.9455V32.4034C84.7985 31.7271 84.8697 30.0187 84.7273 29.378C84.4782 28.3103 83.8019 27.9899 82.8765 27.9899C82.1291 27.9899 81.3105 28.4882 80.9902 29.3068C80.6698 30.1255 80.7054 31.478 80.7054 32.4034V40.9455C80.7054 41.2658 80.4207 41.515 80.1003 41.515H76.9682C76.6479 41.4794 76.3988 41.2303 76.3988 40.9455V32.4034C76.3988 30.6238 76.6835 27.9543 74.4768 27.9543C72.2344 27.9543 72.3056 30.517 72.3056 32.4034V40.9455C72.27 41.2303 72.0209 41.4794 71.665 41.4794ZM129.68 23.9324C134.343 23.9324 136.87 27.9187 136.87 33.0084C136.87 37.9202 134.094 41.8353 129.68 41.8353C125.125 41.8353 122.633 37.849 122.633 32.8661C122.598 27.8476 125.125 23.9324 129.68 23.9324ZM129.68 27.2425C127.367 27.2425 127.225 30.4102 127.225 32.3678C127.225 34.3254 127.189 38.5252 129.645 38.5252C132.065 38.5252 132.207 35.144 132.207 33.0796C132.207 31.7271 132.136 30.0899 131.745 28.8086C131.389 27.6696 130.677 27.2425 129.68 27.2425ZM142.885 41.4794H139.753C139.433 41.4438 139.184 41.1947 139.184 40.9099V24.7866C139.219 24.5019 139.468 24.2527 139.789 24.2527H142.707C142.992 24.2527 143.205 24.4663 143.277 24.7154V27.1713H143.348C144.238 24.9646 145.448 23.9324 147.619 23.9324C149.007 23.9324 150.395 24.4307 151.285 25.8188C152.104 27.1001 152.104 29.2712 152.104 30.8373V40.9811C152.068 41.2658 151.819 41.4794 151.498 41.4794H148.366C148.082 41.4438 147.832 41.2303 147.797 40.9811V32.2254C147.797 30.4458 148.01 27.8832 145.839 27.8832C145.092 27.8832 144.38 28.3814 144.024 29.1645C143.597 30.1611 143.526 31.122 143.526 32.2254V40.9099C143.49 41.2303 143.205 41.4794 142.885 41.4794ZM101.064 33.7915C101.064 35.0016 101.1 36.0338 100.495 37.1371C99.9964 38.027 99.2134 38.5608 98.3236 38.5608C97.1135 38.5608 96.4016 37.6354 96.4016 36.2829C96.4016 33.6135 98.7863 33.1152 101.064 33.1152V33.7915ZM104.232 41.4438C104.018 41.6218 103.734 41.6574 103.484 41.515C102.452 40.6608 102.239 40.2337 101.669 39.415C99.9608 41.1591 98.7151 41.693 96.5084 41.693C93.8746 41.693 91.8102 40.0557 91.8102 36.8168C91.8102 34.2542 93.1983 32.5457 95.1559 31.6915C96.8643 30.9441 99.249 30.8017 101.064 30.5882V30.1966C101.064 29.4492 101.135 28.5594 100.673 27.9187C100.281 27.3493 99.5693 27.1001 98.9287 27.1001C97.7185 27.1001 96.6508 27.7052 96.4016 28.9865C96.3304 29.2713 96.1525 29.556 95.8677 29.556L92.8424 29.2357C92.5932 29.1645 92.3085 28.9865 92.3797 28.595C93.0915 24.8934 96.4016 23.79 99.3914 23.79C100.922 23.79 102.915 24.1816 104.125 25.3561C105.656 26.7798 105.513 28.7018 105.513 30.7661V35.6423C105.513 37.1015 106.118 37.7422 106.688 38.5608C106.901 38.8456 106.937 39.2015 106.688 39.3795C106.012 39.9133 104.873 40.9099 104.232 41.4438ZM59.9551 33.7915C59.9551 35.0016 59.9907 36.0338 59.3856 37.1371C58.8873 38.027 58.1043 38.5608 57.2145 38.5608C56.0044 38.5608 55.2925 37.6354 55.2925 36.2829C55.2925 33.6135 57.6772 33.1152 59.9551 33.1152V33.7915ZM63.0872 41.4438C62.8737 41.6218 62.5889 41.6574 62.3398 41.515C61.3076 40.6608 61.0941 40.2337 60.5246 39.415C58.8162 41.1591 57.5704 41.693 55.3637 41.693C52.7299 41.693 50.6655 40.0557 50.6655 36.8168C50.6655 34.2542 52.0536 32.5457 54.0112 31.6915C55.7196 30.9441 58.1043 30.8017 59.9195 30.5882V30.1966C59.9195 29.4492 59.9907 28.5594 59.528 27.9187C59.1365 27.3493 58.4246 27.1001 57.784 27.1001C56.5738 27.1001 55.5061 27.7052 55.2569 28.9865C55.1857 29.2713 55.0078 29.556 54.723 29.556L51.6977 29.2357C51.4486 29.1645 51.1638 28.9865 51.235 28.595C51.9469 24.8934 55.2569 23.79 58.2467 23.79C59.7772 23.79 61.7703 24.1816 62.9805 25.3561C64.5109 26.7798 64.3686 28.7018 64.3686 30.7661V35.6423C64.3686 37.1015 64.9736 37.7422 65.5431 38.5608C65.7567 38.8456 65.7922 39.2015 65.5431 39.3795C64.8668 39.9133 63.7279 40.9099 63.0872 41.4438Z" fill="url(#paint2_linear_16_933)"/>
</g>
</g>
<defs>
<linearGradient id="paint0_linear_16_933" x1="87.0348" y1="43.4401" x2="87.3606" y2="57.8443" gradientUnits="userSpaceOnUse">
<stop stop-color="white"/>
<stop offset="1" stop-color="#999999"/>
</linearGradient>
<linearGradient id="paint1_linear_16_933" x1="113.23" y1="42.3713" x2="114.495" y2="55.1838" gradientUnits="userSpaceOnUse">
<stop stop-color="white"/>
<stop offset="1" stop-color="#999999"/>
</linearGradient>
<linearGradient id="paint2_linear_16_933" x1="96.3126" y1="24.0464" x2="96.7335" y2="47.5871" gradientUnits="userSpaceOnUse">
<stop stop-color="white"/>
<stop offset="1" stop-color="#999999"/>
</linearGradient>
<clipPath id="clip0_16_933">
<rect width="203.193" height="70.1613" fill="white"/>
</clipPath>
<clipPath id="clip1_16_933">
<rect width="101.438" height="101.438" fill="white" transform="translate(50.8774 -15.6387)"/>
</clipPath>
</defs>
</svg>
