<svg width="204" height="71" viewBox="0 0 204 71" fill="none" xmlns="http://www.w3.org/2000/svg">
<g clip-path="url(#clip0_16_936)">
<path d="M114.28 36.656C114.346 43.6919 120.453 46.0332 120.52 46.063C120.469 46.228 119.544 49.3995 117.303 52.6755C115.365 55.5078 113.354 58.3295 110.186 58.388C107.073 58.4453 106.072 56.542 102.513 56.542C98.9545 56.542 97.8423 58.3296 94.8954 58.4454C91.8373 58.5612 89.5086 55.3828 87.5547 52.5609C83.5622 46.7887 80.5111 36.2501 84.608 29.1364C86.6432 25.6037 90.2804 23.3667 94.2282 23.3093C97.2311 23.252 100.065 25.3296 101.901 25.3296C103.736 25.3296 107.18 22.8311 110.801 23.198C112.317 23.2611 116.573 23.8104 119.305 27.8098C119.085 27.9463 114.228 30.7738 114.28 36.656ZM108.43 19.3793C110.053 17.414 111.146 14.6782 110.848 11.9561C108.508 12.0501 105.678 13.5155 103.999 15.4797C102.495 17.2191 101.177 20.0031 101.533 22.6713C104.141 22.8731 106.806 21.3458 108.43 19.3793Z" fill="url(#paint0_linear_16_936)"/>
</g>
<defs>
<linearGradient id="paint0_linear_16_936" x1="101.592" y1="11.9561" x2="101.592" y2="58.4485" gradientUnits="userSpaceOnUse">
<stop stop-color="white"/>
<stop offset="1" stop-color="#666666"/>
</linearGradient>
<clipPath id="clip0_16_936">
<rect width="46.4924" height="46.4924" fill="white" transform="translate(78.543 11.834)"/>
</clipPath>
</defs>
</svg>
