<svg width="287" height="201" viewBox="0 0 287 201" fill="none" xmlns="http://www.w3.org/2000/svg">
<rect x="0.300732" y="0.3" width="138.4" height="50.4" rx="9.7" fill="#222222" fill-opacity="0.7"/>
<rect x="0.300732" y="0.3" width="138.4" height="50.4" rx="9.7" stroke="url(#paint0_linear_137_418)" stroke-width="0.6"/>
<path d="M18.2024 20L16.2138 12.7273H17.1087L18.6286 18.6506H18.6996L20.2479 12.7273H21.2422L22.7905 18.6506H22.8615L24.3814 12.7273H25.2763L23.2877 20H22.3786L20.7735 14.2045H20.7166L19.1115 20H18.2024ZM27.2573 20.1278C26.9116 20.1278 26.5979 20.0627 26.3162 19.9325C26.0345 19.8 25.8108 19.6094 25.6451 19.3608C25.4793 19.1098 25.3965 18.8068 25.3965 18.4517C25.3965 18.1392 25.458 17.8859 25.5811 17.6918C25.7042 17.4953 25.8688 17.3414 26.0747 17.2301C26.2807 17.1188 26.508 17.036 26.7566 16.9815C27.0075 16.9247 27.2596 16.8797 27.5129 16.8466C27.8444 16.804 28.1131 16.772 28.3191 16.7507C28.5274 16.727 28.6789 16.688 28.7736 16.6335C28.8707 16.5791 28.9192 16.4844 28.9192 16.3494V16.321C28.9192 15.9706 28.8233 15.6984 28.6316 15.5043C28.4422 15.3101 28.1545 15.2131 27.7686 15.2131C27.3685 15.2131 27.0549 15.3007 26.8276 15.4759C26.6003 15.651 26.4405 15.8381 26.3482 16.0369L25.5527 15.7528C25.6948 15.4214 25.8842 15.1634 26.1209 14.9787C26.36 14.7917 26.6204 14.6615 26.9022 14.5881C27.1862 14.5123 27.4656 14.4744 27.7402 14.4744C27.9154 14.4744 28.1166 14.4957 28.3439 14.5384C28.5736 14.5786 28.7949 14.6626 29.008 14.7905C29.2234 14.9183 29.4022 15.1113 29.5442 15.3693C29.6862 15.6274 29.7573 15.973 29.7573 16.4062V20H28.9192V19.2614H28.8766C28.8198 19.3797 28.7251 19.5064 28.5925 19.6413C28.4599 19.7763 28.2835 19.8911 28.0634 19.9858C27.8432 20.0805 27.5745 20.1278 27.2573 20.1278ZM27.3851 19.375C27.7165 19.375 27.9959 19.3099 28.2232 19.1797C28.4528 19.0495 28.6256 18.8814 28.7416 18.6754C28.86 18.4695 28.9192 18.2528 28.9192 18.0256V17.2585C28.8837 17.3011 28.8056 17.3402 28.6848 17.3757C28.5665 17.4089 28.4291 17.4384 28.2729 17.4645C28.119 17.4882 27.9687 17.5095 27.8219 17.5284C27.6775 17.545 27.5603 17.5592 27.4703 17.571C27.2525 17.5994 27.0489 17.6456 26.8595 17.7095C26.6725 17.7711 26.521 17.8646 26.405 17.9901C26.2914 18.1132 26.2345 18.2812 26.2345 18.4943C26.2345 18.7855 26.3423 19.0057 26.5577 19.1548C26.7755 19.3016 27.0513 19.375 27.3851 19.375ZM32.025 12.7273V20H31.1869V12.7273H32.025ZM34.298 12.7273V20H33.46V12.7273H34.298ZM38.0199 20.1136C37.4944 20.1136 37.041 19.9976 36.6599 19.7656C36.2811 19.5312 35.9887 19.2045 35.7827 18.7855C35.5791 18.3641 35.4773 17.8741 35.4773 17.3153C35.4773 16.7566 35.5791 16.2642 35.7827 15.8381C35.9887 15.4096 36.2752 15.0758 36.6421 14.8366C37.0114 14.5952 37.4423 14.4744 37.9347 14.4744C38.2188 14.4744 38.4993 14.5218 38.7763 14.6165C39.0533 14.7112 39.3055 14.8651 39.5327 15.0781C39.76 15.2888 39.9411 15.5682 40.0761 15.9162C40.211 16.2642 40.2785 16.6927 40.2785 17.2017V17.5568H36.0739V16.8324H39.4262C39.4262 16.5246 39.3646 16.25 39.2415 16.0085C39.1208 15.767 38.948 15.5765 38.7231 15.4368C38.5005 15.2971 38.2377 15.2273 37.9347 15.2273C37.6009 15.2273 37.3121 15.3101 37.0682 15.4759C36.8268 15.6392 36.6409 15.8523 36.5107 16.1151C36.3805 16.3778 36.3154 16.6596 36.3154 16.9602V17.4432C36.3154 17.8551 36.3864 18.2043 36.5285 18.4908C36.6729 18.7749 36.8729 18.9915 37.1286 19.1406C37.3843 19.2874 37.6814 19.3608 38.0199 19.3608C38.2401 19.3608 38.439 19.33 38.6165 19.2685C38.7965 19.2045 38.9515 19.1098 39.0817 18.9844C39.2119 18.8565 39.3126 18.6979 39.3836 18.5085L40.1932 18.7358C40.108 19.0104 39.9648 19.2519 39.7636 19.4602C39.5623 19.6662 39.3137 19.8272 39.0178 19.9432C38.7219 20.0568 38.3893 20.1136 38.0199 20.1136ZM43.8255 14.5455V15.2557H40.9988V14.5455H43.8255ZM41.8226 13.2386H42.6607V18.4375C42.6607 18.6742 42.695 18.8518 42.7637 18.9702C42.8347 19.0862 42.9247 19.1643 43.0336 19.2045C43.1448 19.2424 43.262 19.2614 43.3851 19.2614C43.4775 19.2614 43.5532 19.2566 43.6124 19.2472C43.6716 19.2353 43.7189 19.2259 43.7545 19.2188L43.9249 19.9716C43.8681 19.9929 43.7888 20.0142 43.687 20.0355C43.5852 20.0592 43.4562 20.071 43.2999 20.071C43.0632 20.071 42.8312 20.0201 42.6039 19.9183C42.379 19.8165 42.192 19.6615 42.0428 19.4531C41.896 19.2448 41.8226 18.982 41.8226 18.6648V13.2386ZM47.8123 20V12.7273H50.3549C50.8615 12.7273 51.2794 12.8149 51.6084 12.9901C51.9375 13.1629 52.1825 13.3961 52.3435 13.6896C52.5045 13.9808 52.585 14.304 52.585 14.6591C52.585 14.9716 52.5294 15.2296 52.4181 15.4332C52.3092 15.6368 52.1648 15.7978 51.9849 15.9162C51.8073 16.0346 51.6144 16.1222 51.406 16.179V16.25C51.6286 16.2642 51.8523 16.3423 52.0772 16.4844C52.3021 16.6264 52.4903 16.83 52.6418 17.0952C52.7933 17.3603 52.8691 17.6847 52.8691 18.0682C52.8691 18.4328 52.7862 18.7607 52.6205 19.0518C52.4548 19.343 52.1932 19.5739 51.8357 19.7443C51.4782 19.9148 51.013 20 50.4401 20H47.8123ZM48.693 19.2188H50.4401C51.0154 19.2188 51.4238 19.1075 51.6653 18.8849C51.9091 18.66 52.031 18.3878 52.031 18.0682C52.031 17.822 51.9683 17.5947 51.8428 17.3864C51.7173 17.1757 51.5386 17.0076 51.3066 16.8821C51.0746 16.7543 50.8 16.6903 50.4827 16.6903H48.693V19.2188ZM48.693 15.9233H50.3265C50.5916 15.9233 50.8307 15.8712 51.0438 15.767C51.2592 15.6629 51.4297 15.5161 51.5552 15.3267C51.683 15.1373 51.7469 14.9148 51.7469 14.6591C51.7469 14.3395 51.6357 14.0684 51.4131 13.8459C51.1906 13.621 50.8378 13.5085 50.3549 13.5085H48.693V15.9233ZM55.7077 20.1278C55.362 20.1278 55.0483 20.0627 54.7666 19.9325C54.4849 19.8 54.2612 19.6094 54.0954 19.3608C53.9297 19.1098 53.8469 18.8068 53.8469 18.4517C53.8469 18.1392 53.9084 17.8859 54.0315 17.6918C54.1546 17.4953 54.3192 17.3414 54.5251 17.2301C54.7311 17.1188 54.9584 17.036 55.2069 16.9815C55.4579 16.9247 55.71 16.8797 55.9633 16.8466C56.2948 16.804 56.5635 16.772 56.7694 16.7507C56.9778 16.727 57.1293 16.688 57.224 16.6335C57.3211 16.5791 57.3696 16.4844 57.3696 16.3494V16.321C57.3696 15.9706 57.2737 15.6984 57.0819 15.5043C56.8926 15.3101 56.6049 15.2131 56.219 15.2131C55.8189 15.2131 55.5052 15.3007 55.278 15.4759C55.0507 15.651 54.8909 15.8381 54.7986 16.0369L54.0031 15.7528C54.1452 15.4214 54.3346 15.1634 54.5713 14.9787C54.8104 14.7917 55.0708 14.6615 55.3525 14.5881C55.6366 14.5123 55.916 14.4744 56.1906 14.4744C56.3658 14.4744 56.567 14.4957 56.7943 14.5384C57.0239 14.5786 57.2453 14.6626 57.4584 14.7905C57.6738 14.9183 57.8525 15.1113 57.9946 15.3693C58.1366 15.6274 58.2077 15.973 58.2077 16.4062V20H57.3696V19.2614H57.327C57.2702 19.3797 57.1755 19.5064 57.0429 19.6413C56.9103 19.7763 56.7339 19.8911 56.5138 19.9858C56.2936 20.0805 56.0249 20.1278 55.7077 20.1278ZM55.8355 19.375C56.1669 19.375 56.4463 19.3099 56.6736 19.1797C56.9032 19.0495 57.076 18.8814 57.192 18.6754C57.3104 18.4695 57.3696 18.2528 57.3696 18.0256V17.2585C57.3341 17.3011 57.256 17.3402 57.1352 17.3757C57.0168 17.4089 56.8795 17.4384 56.7233 17.4645C56.5694 17.4882 56.4191 17.5095 56.2723 17.5284C56.1279 17.545 56.0107 17.5592 55.9207 17.571C55.7029 17.5994 55.4993 17.6456 55.3099 17.7095C55.1229 17.7711 54.9714 17.8646 54.8554 17.9901C54.7417 18.1132 54.6849 18.2812 54.6849 18.4943C54.6849 18.7855 54.7926 19.0057 55.0081 19.1548C55.2259 19.3016 55.5017 19.375 55.8355 19.375ZM60.4754 12.7273V20H59.6373V12.7273H60.4754ZM63.5155 20.1278C63.1698 20.1278 62.8561 20.0627 62.5744 19.9325C62.2927 19.8 62.069 19.6094 61.9033 19.3608C61.7375 19.1098 61.6547 18.8068 61.6547 18.4517C61.6547 18.1392 61.7162 17.8859 61.8393 17.6918C61.9624 17.4953 62.127 17.3414 62.3329 17.2301C62.5389 17.1188 62.7662 17.036 63.0148 16.9815C63.2657 16.9247 63.5178 16.8797 63.7712 16.8466C64.1026 16.804 64.3713 16.772 64.5773 16.7507C64.7856 16.727 64.9371 16.688 65.0318 16.6335C65.1289 16.5791 65.1774 16.4844 65.1774 16.3494V16.321C65.1774 15.9706 65.0815 15.6984 64.8898 15.5043C64.7004 15.3101 64.4127 15.2131 64.0268 15.2131C63.6267 15.2131 63.3131 15.3007 63.0858 15.4759C62.8585 15.651 62.6987 15.8381 62.6064 16.0369L61.8109 15.7528C61.953 15.4214 62.1424 15.1634 62.3791 14.9787C62.6182 14.7917 62.8786 14.6615 63.1604 14.5881C63.4444 14.5123 63.7238 14.4744 63.9984 14.4744C64.1736 14.4744 64.3748 14.4957 64.6021 14.5384C64.8318 14.5786 65.0531 14.6626 65.2662 14.7905C65.4816 14.9183 65.6604 15.1113 65.8024 15.3693C65.9444 15.6274 66.0155 15.973 66.0155 16.4062V20H65.1774V19.2614H65.1348C65.078 19.3797 64.9833 19.5064 64.8507 19.6413C64.7181 19.7763 64.5417 19.8911 64.3216 19.9858C64.1014 20.0805 63.8327 20.1278 63.5155 20.1278ZM63.6433 19.375C63.9747 19.375 64.2541 19.3099 64.4814 19.1797C64.711 19.0495 64.8838 18.8814 64.9998 18.6754C65.1182 18.4695 65.1774 18.2528 65.1774 18.0256V17.2585C65.1419 17.3011 65.0638 17.3402 64.943 17.3757C64.8247 17.4089 64.6873 17.4384 64.5311 17.4645C64.3772 17.4882 64.2269 17.5095 64.0801 17.5284C63.9357 17.545 63.8185 17.5592 63.7285 17.571C63.5107 17.5994 63.3071 17.6456 63.1177 17.7095C62.9307 17.7711 62.7792 17.8646 62.6632 17.9901C62.5496 18.1132 62.4927 18.2812 62.4927 18.4943C62.4927 18.7855 62.6005 19.0057 62.8159 19.1548C63.0337 19.3016 63.3095 19.375 63.6433 19.375ZM68.2832 16.7188V20H67.4451V14.5455H68.2548V15.3977H68.3258C68.4536 15.1207 68.6478 14.8982 68.9082 14.7301C69.1686 14.5597 69.5048 14.4744 69.9167 14.4744C70.286 14.4744 70.6092 14.5502 70.8862 14.7017C71.1632 14.8509 71.3786 15.0781 71.5325 15.3835C71.6864 15.6866 71.7633 16.0701 71.7633 16.5341V20H70.9252V16.5909C70.9252 16.1624 70.814 15.8286 70.5914 15.5895C70.3689 15.348 70.0635 15.2273 69.6752 15.2273C69.4077 15.2273 69.1686 15.2853 68.9579 15.4013C68.7496 15.5173 68.585 15.6866 68.4643 15.9091C68.3436 16.1316 68.2832 16.4015 68.2832 16.7188ZM75.4106 20.1136C74.8993 20.1136 74.4589 19.9929 74.0896 19.7514C73.7203 19.5099 73.4362 19.1773 73.2373 18.7536C73.0385 18.3298 72.939 17.8456 72.939 17.3011C72.939 16.7472 73.0408 16.2583 73.2444 15.8345C73.4504 15.4084 73.7369 15.0758 74.1038 14.8366C74.4731 14.5952 74.904 14.4744 75.3964 14.4744C75.78 14.4744 76.1256 14.5455 76.4334 14.6875C76.7411 14.8295 76.9933 15.0284 77.1898 15.2841C77.3863 15.5398 77.5082 15.8381 77.5555 16.179H76.7175C76.6535 15.9304 76.5115 15.7102 76.2913 15.5185C76.0735 15.3243 75.78 15.2273 75.4106 15.2273C75.0839 15.2273 74.7975 15.3125 74.5513 15.483C74.3074 15.651 74.1168 15.889 73.9795 16.1967C73.8446 16.5021 73.7771 16.8608 73.7771 17.2727C73.7771 17.6941 73.8434 18.0611 73.976 18.3736C74.1109 18.6861 74.3003 18.9287 74.5442 19.1016C74.7904 19.2744 75.0792 19.3608 75.4106 19.3608C75.6284 19.3608 75.8261 19.3229 76.0037 19.2472C76.1812 19.1714 76.3316 19.0625 76.4547 18.9205C76.5778 18.7784 76.6654 18.608 76.7175 18.4091H77.5555C77.5082 18.7311 77.391 19.0211 77.204 19.2791C77.0193 19.5348 76.7743 19.7384 76.4689 19.8899C76.1658 20.0391 75.8131 20.1136 75.4106 20.1136ZM80.9676 20.1136C80.442 20.1136 79.9887 19.9976 79.6075 19.7656C79.2287 19.5312 78.9364 19.2045 78.7304 18.7855C78.5268 18.3641 78.425 17.8741 78.425 17.3153C78.425 16.7566 78.5268 16.2642 78.7304 15.8381C78.9364 15.4096 79.2228 15.0758 79.5898 14.8366C79.9591 14.5952 80.3899 14.4744 80.8824 14.4744C81.1665 14.4744 81.447 14.5218 81.724 14.6165C82.001 14.7112 82.2531 14.8651 82.4804 15.0781C82.7077 15.2888 82.8888 15.5682 83.0237 15.9162C83.1587 16.2642 83.2261 16.6927 83.2261 17.2017V17.5568H79.0216V16.8324H82.3739C82.3739 16.5246 82.3123 16.25 82.1892 16.0085C82.0685 15.767 81.8956 15.5765 81.6707 15.4368C81.4482 15.2971 81.1854 15.2273 80.8824 15.2273C80.5486 15.2273 80.2597 15.3101 80.0159 15.4759C79.7744 15.6392 79.5886 15.8523 79.4584 16.1151C79.3282 16.3778 79.2631 16.6596 79.2631 16.9602V17.4432C79.2631 17.8551 79.3341 18.2043 79.4761 18.4908C79.6205 18.7749 79.8206 18.9915 80.0763 19.1406C80.3319 19.2874 80.6291 19.3608 80.9676 19.3608C81.1878 19.3608 81.3866 19.33 81.5642 19.2685C81.7441 19.2045 81.8992 19.1098 82.0294 18.9844C82.1596 18.8565 82.2602 18.6979 82.3312 18.5085L83.1409 18.7358C83.0557 19.0104 82.9124 19.2519 82.7112 19.4602C82.51 19.6662 82.2614 19.8272 81.9655 19.9432C81.6695 20.0568 81.3369 20.1136 80.9676 20.1136Z" fill="#929292"/>
<g clip-path="url(#clip0_137_418)">
<path d="M93.0007 21C90.2392 21 88.0007 18.7615 88.0007 16C88.0007 13.2385 90.2392 11 93.0007 11C95.7622 11 98.0007 13.2385 98.0007 16C98.0007 18.7615 95.7622 21 93.0007 21ZM93.0007 20C94.0616 20 95.079 19.5786 95.8292 18.8284C96.5793 18.0783 97.0007 17.0609 97.0007 16C97.0007 14.9391 96.5793 13.9217 95.8292 13.1716C95.079 12.4214 94.0616 12 93.0007 12C91.9399 12 90.9225 12.4214 90.1723 13.1716C89.4222 13.9217 89.0007 14.9391 89.0007 16C89.0007 17.0609 89.4222 18.0783 90.1723 18.8284C90.9225 19.5786 91.9399 20 93.0007 20ZM92.5007 13.5H93.5007V14.5H92.5007V13.5ZM92.5007 15.5H93.5007V18.5H92.5007V15.5Z" fill="#929292"/>
</g>
<path d="M19.8278 39.1818V27.3636H20.5849V39.1818H19.8278ZM22.196 31.0291C22.1468 30.5921 21.9437 30.2536 21.5867 30.0135C21.2297 29.7704 20.7803 29.6488 20.2387 29.6488C19.8509 29.6488 19.5154 29.7103 19.2323 29.8335C18.9491 29.9535 18.7291 30.1197 18.5721 30.332C18.4182 30.5413 18.3413 30.7798 18.3413 31.0476C18.3413 31.2723 18.3936 31.4661 18.4982 31.6293C18.606 31.7924 18.746 31.9293 18.9183 32.0401C19.0938 32.1478 19.2815 32.2386 19.4816 32.3125C19.6816 32.3833 19.874 32.4418 20.0586 32.4879L20.9819 32.728C21.2835 32.8018 21.5928 32.9019 21.9098 33.0281C22.2268 33.1542 22.5207 33.3204 22.7916 33.5266C23.0624 33.7328 23.2809 33.9883 23.4471 34.293C23.6164 34.5977 23.701 34.9624 23.701 35.3871C23.701 35.9226 23.5625 36.3981 23.2855 36.8136C23.0116 37.229 22.6131 37.5568 22.0899 37.7969C21.5697 38.0369 20.9404 38.157 20.2017 38.157C19.4939 38.157 18.8814 38.0446 18.3644 37.82C17.8473 37.5953 17.4426 37.2768 17.1502 36.8643C16.8579 36.4489 16.6963 35.9564 16.6655 35.3871H18.0966C18.1243 35.7287 18.2351 36.0134 18.429 36.2411C18.626 36.4658 18.8768 36.6335 19.1815 36.7443C19.4893 36.852 19.8263 36.9059 20.1925 36.9059C20.5957 36.9059 20.9542 36.8428 21.2681 36.7166C21.5851 36.5874 21.8344 36.4089 22.016 36.1811C22.1976 35.9503 22.2884 35.681 22.2884 35.3732C22.2884 35.0932 22.2084 34.8639 22.0483 34.6854C21.8914 34.5069 21.6775 34.3591 21.4066 34.2422C21.1389 34.1252 20.8357 34.0221 20.4972 33.9329L19.38 33.6282C18.6229 33.422 18.0227 33.1188 17.5796 32.7188C17.1395 32.3187 16.9194 31.7893 16.9194 31.1307C16.9194 30.5859 17.0671 30.1104 17.3626 29.7042C17.658 29.2979 18.0581 28.9825 18.5629 28.7578C19.0676 28.5301 19.637 28.4162 20.271 28.4162C20.9111 28.4162 21.4759 28.5285 21.9652 28.7532C22.4576 28.9779 22.8454 29.2872 23.1286 29.6811C23.4117 30.072 23.5594 30.5213 23.5718 31.0291H22.196ZM28.7334 28.5455V38H27.3023V29.9766H27.2469L24.9848 31.4538V30.0874L27.3438 28.5455H28.7334ZM34.4525 38.157C33.7231 38.1539 33.0998 37.9615 32.5828 37.5799C32.0657 37.1983 31.6703 36.6428 31.3964 35.9134C31.1224 35.1839 30.9855 34.3053 30.9855 33.2773C30.9855 32.2525 31.1224 31.3769 31.3964 30.6506C31.6733 29.9242 32.0704 29.3703 32.5874 28.9886C33.1075 28.607 33.7292 28.4162 34.4525 28.4162C35.1757 28.4162 35.7959 28.6085 36.3129 28.9933C36.83 29.3749 37.2254 29.9289 37.4993 30.6552C37.7763 31.3784 37.9148 32.2525 37.9148 33.2773C37.9148 34.3084 37.7779 35.1886 37.504 35.918C37.23 36.6443 36.8346 37.1998 36.3175 37.5845C35.8005 37.9661 35.1788 38.157 34.4525 38.157ZM34.4525 36.9244C35.0926 36.9244 35.5927 36.612 35.9528 35.9872C36.316 35.3625 36.4976 34.4592 36.4976 33.2773C36.4976 32.4925 36.4145 31.8293 36.2483 31.2876C36.0852 30.7429 35.8497 30.3305 35.542 30.0504C35.2373 29.7673 34.8741 29.6257 34.4525 29.6257C33.8154 29.6257 33.3153 29.9396 32.9521 30.5675C32.589 31.1953 32.4058 32.0986 32.4028 33.2773C32.4028 34.0652 32.4843 34.7315 32.6474 35.2763C32.8136 35.8179 33.0491 36.2288 33.3537 36.5089C33.6584 36.7859 34.0247 36.9244 34.4525 36.9244ZM42.7141 38.157C41.9847 38.1539 41.3614 37.9615 40.8444 37.5799C40.3274 37.1983 39.9319 36.6428 39.658 35.9134C39.3841 35.1839 39.2471 34.3053 39.2471 33.2773C39.2471 32.2525 39.3841 31.3769 39.658 30.6506C39.935 29.9242 40.332 29.3703 40.849 28.9886C41.3691 28.607 41.9908 28.4162 42.7141 28.4162C43.4373 28.4162 44.0575 28.6085 44.5745 28.9933C45.0916 29.3749 45.487 29.9289 45.7609 30.6552C46.0379 31.3784 46.1764 32.2525 46.1764 33.2773C46.1764 34.3084 46.0395 35.1886 45.7656 35.918C45.4917 36.6443 45.0962 37.1998 44.5791 37.5845C44.0621 37.9661 43.4404 38.157 42.7141 38.157ZM42.7141 36.9244C43.3542 36.9244 43.8543 36.612 44.2144 35.9872C44.5776 35.3625 44.7592 34.4592 44.7592 33.2773C44.7592 32.4925 44.6761 31.8293 44.5099 31.2876C44.3468 30.7429 44.1113 30.3305 43.8036 30.0504C43.4989 29.7673 43.1357 29.6257 42.7141 29.6257C42.077 29.6257 41.5769 29.9396 41.2137 30.5675C40.8506 31.1953 40.6674 32.0986 40.6644 33.2773C40.6644 34.0652 40.7459 34.7315 40.909 35.2763C41.0752 35.8179 41.3107 36.2288 41.6153 36.5089C41.92 36.7859 42.2863 36.9244 42.7141 36.9244ZM49.1556 36.7074L49.0864 37.2106C49.0402 37.5799 48.9617 37.9646 48.8509 38.3647C48.7432 38.7679 48.6309 39.1418 48.5139 39.4865C48.4001 39.8312 48.3062 40.1051 48.2323 40.3082H47.2536C47.2936 40.1174 47.349 39.8589 47.4198 39.5327C47.4906 39.2095 47.5599 38.8479 47.6276 38.4478C47.6953 38.0477 47.7461 37.6399 47.7799 37.2244L47.8261 36.7074H49.1556ZM53.9052 38.157C53.1758 38.1539 52.5526 37.9615 52.0356 37.5799C51.5185 37.1983 51.123 36.6428 50.8491 35.9134C50.5752 35.1839 50.4383 34.3053 50.4383 33.2773C50.4383 32.2525 50.5752 31.3769 50.8491 30.6506C51.1261 29.9242 51.5231 29.3703 52.0402 28.9886C52.5603 28.607 53.182 28.4162 53.9052 28.4162C54.6285 28.4162 55.2486 28.6085 55.7657 28.9933C56.2827 29.3749 56.6782 29.9289 56.9521 30.6552C57.2291 31.3784 57.3676 32.2525 57.3676 33.2773C57.3676 34.3084 57.2306 35.1886 56.9567 35.918C56.6828 36.6443 56.2873 37.1998 55.7703 37.5845C55.2533 37.9661 54.6316 38.157 53.9052 38.157ZM53.9052 36.9244C54.5454 36.9244 55.0455 36.612 55.4056 35.9872C55.7688 35.3625 55.9503 34.4592 55.9503 33.2773C55.9503 32.4925 55.8672 31.8293 55.7011 31.2876C55.5379 30.7429 55.3025 30.3305 54.9947 30.0504C54.69 29.7673 54.3269 29.6257 53.9052 29.6257C53.2682 29.6257 52.768 29.9396 52.4049 30.5675C52.0417 31.1953 51.8586 32.0986 51.8555 33.2773C51.8555 34.0652 51.9371 34.7315 52.1002 35.2763C52.2664 35.8179 52.5018 36.2288 52.8065 36.5089C53.1112 36.7859 53.4774 36.9244 53.9052 36.9244ZM62.1668 38.157C61.4374 38.1539 60.8142 37.9615 60.2972 37.5799C59.7801 37.1983 59.3846 36.6428 59.1107 35.9134C58.8368 35.1839 58.6999 34.3053 58.6999 33.2773C58.6999 32.2525 58.8368 31.3769 59.1107 30.6506C59.3877 29.9242 59.7847 29.3703 60.3018 28.9886C60.8219 28.607 61.4436 28.4162 62.1668 28.4162C62.8901 28.4162 63.5102 28.6085 64.0273 28.9933C64.5443 29.3749 64.9398 29.9289 65.2137 30.6552C65.4907 31.3784 65.6292 32.2525 65.6292 33.2773C65.6292 34.3084 65.4922 35.1886 65.2183 35.918C64.9444 36.6443 64.5489 37.1998 64.0319 37.5845C63.5149 37.9661 62.8932 38.157 62.1668 38.157ZM62.1668 36.9244C62.807 36.9244 63.3071 36.612 63.6672 35.9872C64.0304 35.3625 64.2119 34.4592 64.2119 33.2773C64.2119 32.4925 64.1288 31.8293 63.9627 31.2876C63.7995 30.7429 63.5641 30.3305 63.2563 30.0504C62.9516 29.7673 62.5885 29.6257 62.1668 29.6257C61.5298 29.6257 61.0297 29.9396 60.6665 30.5675C60.3033 31.1953 60.1202 32.0986 60.1171 33.2773C60.1171 34.0652 60.1987 34.7315 60.3618 35.2763C60.528 35.8179 60.7634 36.2288 61.0681 36.5089C61.3728 36.7859 61.7391 36.9244 62.1668 36.9244ZM70.4284 38.157C69.699 38.1539 69.0758 37.9615 68.5588 37.5799C68.0417 37.1983 67.6462 36.6428 67.3723 35.9134C67.0984 35.1839 66.9615 34.3053 66.9615 33.2773C66.9615 32.2525 67.0984 31.3769 67.3723 30.6506C67.6493 29.9242 68.0463 29.3703 68.5634 28.9886C69.0835 28.607 69.7052 28.4162 70.4284 28.4162C71.1517 28.4162 71.7718 28.6085 72.2889 28.9933C72.8059 29.3749 73.2014 29.9289 73.4753 30.6552C73.7523 31.3784 73.8908 32.2525 73.8908 33.2773C73.8908 34.3084 73.7538 35.1886 73.4799 35.918C73.206 36.6443 72.8105 37.1998 72.2935 37.5845C71.7765 37.9661 71.1548 38.157 70.4284 38.157ZM70.4284 36.9244C71.0686 36.9244 71.5687 36.612 71.9288 35.9872C72.292 35.3625 72.4735 34.4592 72.4735 33.2773C72.4735 32.4925 72.3904 31.8293 72.2243 31.2876C72.0611 30.7429 71.8257 30.3305 71.5179 30.0504C71.2132 29.7673 70.8501 29.6257 70.4284 29.6257C69.7914 29.6257 69.2913 29.9396 68.9281 30.5675C68.5649 31.1953 68.3818 32.0986 68.3787 33.2773C68.3787 34.0652 68.4603 34.7315 68.6234 35.2763C68.7896 35.8179 69.025 36.2288 69.3297 36.5089C69.6344 36.7859 70.0007 36.9244 70.4284 36.9244ZM75.9836 38.0877C75.7313 38.0877 75.5143 37.9985 75.3327 37.82C75.1511 37.6384 75.0603 37.4199 75.0603 37.1644C75.0603 36.9121 75.1511 36.6966 75.3327 36.5181C75.5143 36.3365 75.7313 36.2457 75.9836 36.2457C76.236 36.2457 76.453 36.3365 76.6346 36.5181C76.8161 36.6966 76.9069 36.9121 76.9069 37.1644C76.9069 37.3337 76.8638 37.4891 76.7777 37.6307C76.6946 37.7692 76.5838 37.88 76.4453 37.9631C76.3068 38.0462 76.1529 38.0877 75.9836 38.0877ZM81.5561 38.157C80.8267 38.1539 80.2035 37.9615 79.6865 37.5799C79.1694 37.1983 78.7739 36.6428 78.5 35.9134C78.2261 35.1839 78.0892 34.3053 78.0892 33.2773C78.0892 32.2525 78.2261 31.3769 78.5 30.6506C78.777 29.9242 79.174 29.3703 79.6911 28.9886C80.2112 28.607 80.8329 28.4162 81.5561 28.4162C82.2794 28.4162 82.8995 28.6085 83.4166 28.9933C83.9336 29.3749 84.3291 29.9289 84.603 30.6552C84.88 31.3784 85.0185 32.2525 85.0185 33.2773C85.0185 34.3084 84.8815 35.1886 84.6076 35.918C84.3337 36.6443 83.9382 37.1998 83.4212 37.5845C82.9042 37.9661 82.2825 38.157 81.5561 38.157ZM81.5561 36.9244C82.1963 36.9244 82.6964 36.612 83.0565 35.9872C83.4197 35.3625 83.6012 34.4592 83.6012 33.2773C83.6012 32.4925 83.5181 31.8293 83.352 31.2876C83.1888 30.7429 82.9534 30.3305 82.6456 30.0504C82.3409 29.7673 81.9778 29.6257 81.5561 29.6257C80.9191 29.6257 80.419 29.9396 80.0558 30.5675C79.6926 31.1953 79.5095 32.0986 79.5064 33.2773C79.5064 34.0652 79.588 34.7315 79.7511 35.2763C79.9173 35.8179 80.1527 36.2288 80.4574 36.5089C80.7621 36.7859 81.1283 36.9244 81.5561 36.9244ZM90.1132 28.5455V38H88.6821V29.9766H88.6267L86.3646 31.4538V30.0874L88.7236 28.5455H90.1132ZM102.06 28.5455H103.491V34.7638C103.491 35.4255 103.336 36.0118 103.025 36.5227C102.714 37.0305 102.277 37.4306 101.714 37.723C101.151 38.0123 100.491 38.157 99.7336 38.157C98.9796 38.157 98.321 38.0123 97.7578 37.723C97.1946 37.4306 96.7575 37.0305 96.4467 36.5227C96.1358 36.0118 95.9804 35.4255 95.9804 34.7638V28.5455H97.4069V34.6484C97.4069 35.0762 97.5008 35.4563 97.6885 35.7887C97.8793 36.1211 98.1486 36.3827 98.4964 36.5735C98.8442 36.7612 99.2566 36.8551 99.7336 36.8551C100.214 36.8551 100.628 36.7612 100.975 36.5735C101.326 36.3827 101.594 36.1211 101.779 35.7887C101.966 35.4563 102.06 35.0762 102.06 34.6484V28.5455ZM110.592 31.0291C110.543 30.5921 110.34 30.2536 109.983 30.0135C109.626 29.7704 109.176 29.6488 108.635 29.6488C108.247 29.6488 107.911 29.7103 107.628 29.8335C107.345 29.9535 107.125 30.1197 106.968 30.332C106.814 30.5413 106.737 30.7798 106.737 31.0476C106.737 31.2723 106.79 31.4661 106.894 31.6293C107.002 31.7924 107.142 31.9293 107.314 32.0401C107.49 32.1478 107.677 32.2386 107.877 32.3125C108.078 32.3833 108.27 32.4418 108.455 32.4879L109.378 32.728C109.679 32.8018 109.989 32.9019 110.306 33.0281C110.623 33.1542 110.917 33.3204 111.188 33.5266C111.458 33.7328 111.677 33.9883 111.843 34.293C112.012 34.5977 112.097 34.9624 112.097 35.3871C112.097 35.9226 111.958 36.3981 111.681 36.8136C111.408 37.229 111.009 37.5568 110.486 37.7969C109.966 38.0369 109.336 38.157 108.598 38.157C107.89 38.157 107.277 38.0446 106.76 37.82C106.243 37.5953 105.839 37.2768 105.546 36.8643C105.254 36.4489 105.092 35.9564 105.061 35.3871H106.493C106.52 35.7287 106.631 36.0134 106.825 36.2411C107.022 36.4658 107.273 36.6335 107.577 36.7443C107.885 36.852 108.222 36.9059 108.588 36.9059C108.992 36.9059 109.35 36.8428 109.664 36.7166C109.981 36.5874 110.23 36.4089 110.412 36.1811C110.594 35.9503 110.684 35.681 110.684 35.3732C110.684 35.0932 110.604 34.8639 110.444 34.6854C110.287 34.5069 110.073 34.3591 109.803 34.2422C109.535 34.1252 109.232 34.0221 108.893 33.9329L107.776 33.6282C107.019 33.422 106.419 33.1188 105.976 32.7188C105.535 32.3187 105.315 31.7893 105.315 31.1307C105.315 30.5859 105.463 30.1104 105.759 29.7042C106.054 29.2979 106.454 28.9825 106.959 28.7578C107.464 28.5301 108.033 28.4162 108.667 28.4162C109.307 28.4162 109.872 28.5285 110.361 28.7532C110.854 28.9779 111.241 29.2872 111.525 29.6811C111.808 30.072 111.955 30.5213 111.968 31.0291H110.592ZM116.732 38H113.672V28.5455H116.829C117.756 28.5455 118.551 28.7347 119.216 29.1133C119.881 29.4888 120.39 30.0289 120.744 30.7337C121.101 31.4354 121.28 32.2771 121.28 33.2589C121.28 34.2437 121.1 35.0901 120.739 35.7979C120.382 36.5058 119.865 37.0505 119.188 37.4322C118.511 37.8107 117.693 38 116.732 38ZM115.098 36.7536H116.654C117.374 36.7536 117.973 36.6181 118.45 36.3473C118.927 36.0734 119.284 35.6779 119.521 35.1609C119.758 34.6407 119.876 34.0067 119.876 33.2589C119.876 32.5172 119.758 31.8878 119.521 31.3707C119.287 30.8537 118.937 30.4613 118.473 30.1935C118.008 29.9258 117.431 29.7919 116.742 29.7919H115.098V36.7536Z" fill="white"/>
<rect x="148.301" y="0.3" width="138.4" height="50.4" rx="9.7" fill="#222222" fill-opacity="0.7"/>
<rect x="148.301" y="0.3" width="138.4" height="50.4" rx="9.7" stroke="url(#paint1_linear_137_418)" stroke-width="0.6"/>
<path d="M165.18 20H164.256L166.927 12.7273H167.836L170.506 20H169.583L167.41 13.8778H167.353L165.18 20ZM165.521 17.1591H169.242V17.9403H165.521V17.1591ZM175.202 14.5455L173.185 20H172.333L170.316 14.5455H171.225L172.731 18.892H172.787L174.293 14.5455H175.202ZM177.648 20.1278C177.302 20.1278 176.988 20.0627 176.706 19.9325C176.425 19.8 176.201 19.6094 176.035 19.3608C175.87 19.1098 175.787 18.8068 175.787 18.4517C175.787 18.1392 175.848 17.8859 175.971 17.6918C176.094 17.4953 176.259 17.3414 176.465 17.2301C176.671 17.1188 176.898 17.036 177.147 16.9815C177.398 16.9247 177.65 16.8797 177.903 16.8466C178.235 16.804 178.503 16.772 178.709 16.7507C178.918 16.727 179.069 16.688 179.164 16.6335C179.261 16.5791 179.309 16.4844 179.309 16.3494V16.321C179.309 15.9706 179.214 15.6984 179.022 15.5043C178.832 15.3101 178.545 15.2131 178.159 15.2131C177.759 15.2131 177.445 15.3007 177.218 15.4759C176.991 15.651 176.831 15.8381 176.738 16.0369L175.943 15.7528C176.085 15.4214 176.274 15.1634 176.511 14.9787C176.75 14.7917 177.011 14.6615 177.292 14.5881C177.576 14.5123 177.856 14.4744 178.13 14.4744C178.306 14.4744 178.507 14.4957 178.734 14.5384C178.964 14.5786 179.185 14.6626 179.398 14.7905C179.614 14.9183 179.792 15.1113 179.934 15.3693C180.076 15.6274 180.148 15.973 180.148 16.4062V20H179.309V19.2614H179.267C179.21 19.3797 179.115 19.5064 178.983 19.6413C178.85 19.7763 178.674 19.8911 178.454 19.9858C178.233 20.0805 177.965 20.1278 177.648 20.1278ZM177.775 19.375C178.107 19.375 178.386 19.3099 178.613 19.1797C178.843 19.0495 179.016 18.8814 179.132 18.6754C179.25 18.4695 179.309 18.2528 179.309 18.0256V17.2585C179.274 17.3011 179.196 17.3402 179.075 17.3757C178.957 17.4089 178.819 17.4384 178.663 17.4645C178.509 17.4882 178.359 17.5095 178.212 17.5284C178.068 17.545 177.951 17.5592 177.861 17.571C177.643 17.5994 177.439 17.6456 177.25 17.7095C177.063 17.7711 176.911 17.8646 176.795 17.9901C176.682 18.1132 176.625 18.2812 176.625 18.4943C176.625 18.7855 176.732 19.0057 176.948 19.1548C177.166 19.3016 177.442 19.375 177.775 19.375ZM181.577 20V14.5455H182.415V20H181.577ZM182.003 13.6364C181.84 13.6364 181.699 13.5807 181.581 13.4695C181.465 13.3582 181.407 13.2244 181.407 13.0682C181.407 12.9119 181.465 12.7782 181.581 12.6669C181.699 12.5556 181.84 12.5 182.003 12.5C182.167 12.5 182.306 12.5556 182.422 12.6669C182.541 12.7782 182.6 12.9119 182.6 13.0682C182.6 13.2244 182.541 13.3582 182.422 13.4695C182.306 13.5807 182.167 13.6364 182.003 13.6364ZM184.688 12.7273V20H183.85V12.7273H184.688ZM187.728 20.1278C187.383 20.1278 187.069 20.0627 186.787 19.9325C186.506 19.8 186.282 19.6094 186.116 19.3608C185.95 19.1098 185.868 18.8068 185.868 18.4517C185.868 18.1392 185.929 17.8859 186.052 17.6918C186.175 17.4953 186.34 17.3414 186.546 17.2301C186.752 17.1188 186.979 17.036 187.228 16.9815C187.479 16.9247 187.731 16.8797 187.984 16.8466C188.315 16.804 188.584 16.772 188.79 16.7507C188.998 16.727 189.15 16.688 189.245 16.6335C189.342 16.5791 189.39 16.4844 189.39 16.3494V16.321C189.39 15.9706 189.294 15.6984 189.103 15.5043C188.913 15.3101 188.626 15.2131 188.24 15.2131C187.84 15.2131 187.526 15.3007 187.299 15.4759C187.071 15.651 186.912 15.8381 186.819 16.0369L186.024 15.7528C186.166 15.4214 186.355 15.1634 186.592 14.9787C186.831 14.7917 187.092 14.6615 187.373 14.5881C187.657 14.5123 187.937 14.4744 188.211 14.4744C188.387 14.4744 188.588 14.4957 188.815 14.5384C189.045 14.5786 189.266 14.6626 189.479 14.7905C189.695 14.9183 189.873 15.1113 190.015 15.3693C190.157 15.6274 190.228 15.973 190.228 16.4062V20H189.39V19.2614H189.348C189.291 19.3797 189.196 19.5064 189.064 19.6413C188.931 19.7763 188.755 19.8911 188.534 19.9858C188.314 20.0805 188.046 20.1278 187.728 20.1278ZM187.856 19.375C188.188 19.375 188.467 19.3099 188.694 19.1797C188.924 19.0495 189.097 18.8814 189.213 18.6754C189.331 18.4695 189.39 18.2528 189.39 18.0256V17.2585C189.355 17.3011 189.277 17.3402 189.156 17.3757C189.038 17.4089 188.9 17.4384 188.744 17.4645C188.59 17.4882 188.44 17.5095 188.293 17.5284C188.149 17.545 188.031 17.5592 187.941 17.571C187.724 17.5994 187.52 17.6456 187.331 17.7095C187.144 17.7711 186.992 17.8646 186.876 17.9901C186.762 18.1132 186.706 18.2812 186.706 18.4943C186.706 18.7855 186.813 19.0057 187.029 19.1548C187.247 19.3016 187.522 19.375 187.856 19.375ZM191.772 20V12.7273H192.61V15.4119H192.681C192.742 15.3172 192.828 15.1965 192.936 15.0497C193.048 14.9006 193.206 14.768 193.412 14.652C193.621 14.5336 193.902 14.4744 194.257 14.4744C194.717 14.4744 195.122 14.5893 195.472 14.8189C195.822 15.0485 196.096 15.3741 196.292 15.7955C196.489 16.2169 196.587 16.714 196.587 17.2869C196.587 17.8646 196.489 18.3653 196.292 18.7891C196.096 19.2105 195.823 19.5372 195.475 19.7692C195.127 19.9988 194.726 20.1136 194.272 20.1136C193.921 20.1136 193.641 20.0556 193.43 19.9396C193.219 19.8213 193.057 19.6875 192.944 19.5384C192.83 19.3868 192.742 19.2614 192.681 19.1619H192.581V20H191.772ZM192.596 17.2727C192.596 17.6847 192.656 18.0481 192.777 18.3629C192.897 18.6754 193.074 18.9205 193.306 19.098C193.538 19.2732 193.822 19.3608 194.158 19.3608C194.508 19.3608 194.801 19.2685 195.035 19.0838C195.272 18.8968 195.449 18.6458 195.568 18.331C195.689 18.0137 195.749 17.661 195.749 17.2727C195.749 16.8892 195.69 16.5436 195.571 16.2358C195.455 15.9257 195.279 15.6806 195.042 15.5007C194.808 15.3184 194.513 15.2273 194.158 15.2273C193.817 15.2273 193.531 15.3137 193.299 15.4865C193.067 15.657 192.891 15.8961 192.773 16.2038C192.655 16.5092 192.596 16.8655 192.596 17.2727ZM198.607 12.7273V20H197.769V12.7273H198.607ZM202.329 20.1136C201.803 20.1136 201.35 19.9976 200.969 19.7656C200.59 19.5312 200.298 19.2045 200.092 18.7855C199.888 18.3641 199.786 17.8741 199.786 17.3153C199.786 16.7566 199.888 16.2642 200.092 15.8381C200.298 15.4096 200.584 15.0758 200.951 14.8366C201.32 14.5952 201.751 14.4744 202.244 14.4744C202.528 14.4744 202.808 14.5218 203.085 14.6165C203.362 14.7112 203.614 14.8651 203.842 15.0781C204.069 15.2888 204.25 15.5682 204.385 15.9162C204.52 16.2642 204.587 16.6927 204.587 17.2017V17.5568H200.383V16.8324H203.735C203.735 16.5246 203.674 16.25 203.551 16.0085C203.43 15.767 203.257 15.5765 203.032 15.4368C202.81 15.2971 202.547 15.2273 202.244 15.2273C201.91 15.2273 201.621 15.3101 201.377 15.4759C201.136 15.6392 200.95 15.8523 200.82 16.1151C200.689 16.3778 200.624 16.6596 200.624 16.9602V17.4432C200.624 17.8551 200.695 18.2043 200.837 18.4908C200.982 18.7749 201.182 18.9915 201.438 19.1406C201.693 19.2874 201.99 19.3608 202.329 19.3608C202.549 19.3608 202.748 19.33 202.926 19.2685C203.105 19.2045 203.261 19.1098 203.391 18.9844C203.521 18.8565 203.622 18.6979 203.693 18.5085L204.502 18.7358C204.417 19.0104 204.274 19.2519 204.073 19.4602C203.871 19.6662 203.623 19.8272 203.327 19.9432C203.031 20.0568 202.698 20.1136 202.329 20.1136ZM208.588 12.7273H209.64L212.111 18.7642H212.196L214.668 12.7273H215.719V20H214.895V14.4744H214.824L212.552 20H211.756L209.483 14.4744H209.412V20H208.588V12.7273ZM218.876 20.1278C218.531 20.1278 218.217 20.0627 217.935 19.9325C217.654 19.8 217.43 19.6094 217.264 19.3608C217.098 19.1098 217.016 18.8068 217.016 18.4517C217.016 18.1392 217.077 17.8859 217.2 17.6918C217.323 17.4953 217.488 17.3414 217.694 17.2301C217.9 17.1188 218.127 17.036 218.376 16.9815C218.627 16.9247 218.879 16.8797 219.132 16.8466C219.464 16.804 219.732 16.772 219.938 16.7507C220.147 16.727 220.298 16.688 220.393 16.6335C220.49 16.5791 220.538 16.4844 220.538 16.3494V16.321C220.538 15.9706 220.442 15.6984 220.251 15.5043C220.061 15.3101 219.774 15.2131 219.388 15.2131C218.988 15.2131 218.674 15.3007 218.447 15.4759C218.219 15.651 218.06 15.8381 217.967 16.0369L217.172 15.7528C217.314 15.4214 217.503 15.1634 217.74 14.9787C217.979 14.7917 218.24 14.6615 218.521 14.5881C218.805 14.5123 219.085 14.4744 219.359 14.4744C219.535 14.4744 219.736 14.4957 219.963 14.5384C220.193 14.5786 220.414 14.6626 220.627 14.7905C220.843 14.9183 221.021 15.1113 221.163 15.3693C221.305 15.6274 221.376 15.973 221.376 16.4062V20H220.538V19.2614H220.496C220.439 19.3797 220.344 19.5064 220.212 19.6413C220.079 19.7763 219.903 19.8911 219.683 19.9858C219.462 20.0805 219.194 20.1278 218.876 20.1278ZM219.004 19.375C219.336 19.375 219.615 19.3099 219.842 19.1797C220.072 19.0495 220.245 18.8814 220.361 18.6754C220.479 18.4695 220.538 18.2528 220.538 18.0256V17.2585C220.503 17.3011 220.425 17.3402 220.304 17.3757C220.186 17.4089 220.048 17.4384 219.892 17.4645C219.738 17.4882 219.588 17.5095 219.441 17.5284C219.297 17.545 219.179 17.5592 219.089 17.571C218.872 17.5994 218.668 17.6456 218.479 17.7095C218.292 17.7711 218.14 17.8646 218.024 17.9901C217.91 18.1132 217.854 18.2812 217.854 18.4943C217.854 18.7855 217.961 19.0057 218.177 19.1548C218.395 19.3016 218.67 19.375 219.004 19.375ZM222.806 20V14.5455H223.616V15.3693H223.673C223.772 15.0994 223.952 14.8804 224.212 14.7124C224.473 14.5443 224.766 14.4602 225.093 14.4602C225.155 14.4602 225.231 14.4614 225.324 14.4638C225.416 14.4661 225.486 14.4697 225.533 14.4744V15.3267C225.505 15.3196 225.44 15.3089 225.338 15.2947C225.239 15.2782 225.133 15.2699 225.022 15.2699C224.757 15.2699 224.52 15.3255 224.312 15.4368C224.106 15.5457 223.942 15.6972 223.822 15.8913C223.703 16.0831 223.644 16.3021 223.644 16.5483V20H222.806ZM228.462 22.1591C228.058 22.1591 227.71 22.107 227.418 22.0028C227.127 21.901 226.885 21.7661 226.69 21.598C226.499 21.4323 226.346 21.2547 226.232 21.0653L226.9 20.5966C226.976 20.696 227.072 20.8097 227.188 20.9375C227.304 21.0677 227.462 21.1802 227.663 21.2749C227.867 21.3719 228.133 21.4205 228.462 21.4205C228.903 21.4205 229.266 21.3139 229.553 21.1009C229.839 20.8878 229.982 20.554 229.982 20.0994V18.9915H229.911C229.85 19.0909 229.762 19.214 229.649 19.3608C229.537 19.5052 229.376 19.6342 229.166 19.7479C228.957 19.8591 228.676 19.9148 228.32 19.9148C227.88 19.9148 227.485 19.8106 227.134 19.6023C226.786 19.3939 226.511 19.0909 226.307 18.6932C226.106 18.2955 226.005 17.8125 226.005 17.2443C226.005 16.6856 226.103 16.1991 226.3 15.7848C226.496 15.3681 226.77 15.0462 227.12 14.8189C227.471 14.5893 227.875 14.4744 228.335 14.4744C228.69 14.4744 228.971 14.5336 229.18 14.652C229.39 14.768 229.551 14.9006 229.663 15.0497C229.776 15.1965 229.864 15.3172 229.926 15.4119H230.011V14.5455H230.82V20.1562C230.82 20.625 230.714 21.0062 230.501 21.2997C230.29 21.5956 230.006 21.8123 229.649 21.9496C229.293 22.0893 228.898 22.1591 228.462 22.1591ZM228.434 19.1619C228.77 19.1619 229.054 19.085 229.286 18.9311C229.518 18.7772 229.695 18.5559 229.815 18.267C229.936 17.9782 229.997 17.6326 229.997 17.2301C229.997 16.8371 229.937 16.4903 229.819 16.1896C229.701 15.889 229.525 15.6534 229.293 15.483C229.061 15.3125 228.775 15.2273 228.434 15.2273C228.079 15.2273 227.783 15.3172 227.546 15.4972C227.312 15.6771 227.136 15.9186 227.017 16.2216C226.901 16.5246 226.843 16.8608 226.843 17.2301C226.843 17.6089 226.902 17.9439 227.021 18.2351C227.141 18.5239 227.319 18.7512 227.553 18.9169C227.79 19.0803 228.084 19.1619 228.434 19.1619ZM232.254 20V14.5455H233.093V20H232.254ZM232.681 13.6364C232.517 13.6364 232.376 13.5807 232.258 13.4695C232.142 13.3582 232.084 13.2244 232.084 13.0682C232.084 12.9119 232.142 12.7782 232.258 12.6669C232.376 12.5556 232.517 12.5 232.681 12.5C232.844 12.5 232.984 12.5556 233.1 12.6669C233.218 12.7782 233.277 12.9119 233.277 13.0682C233.277 13.2244 233.218 13.3582 233.1 13.4695C232.984 13.5807 232.844 13.6364 232.681 13.6364ZM235.366 16.7188V20H234.528V14.5455H235.337V15.3977H235.408C235.536 15.1207 235.73 14.8982 235.991 14.7301C236.251 14.5597 236.587 14.4744 236.999 14.4744C237.368 14.4744 237.692 14.5502 237.969 14.7017C238.246 14.8509 238.461 15.0781 238.615 15.3835C238.769 15.6866 238.846 16.0701 238.846 16.5341V20H238.008V16.5909C238.008 16.1624 237.896 15.8286 237.674 15.5895C237.451 15.348 237.146 15.2273 236.758 15.2273C236.49 15.2273 236.251 15.2853 236.04 15.4013C235.832 15.5173 235.667 15.6866 235.547 15.9091C235.426 16.1316 235.366 16.4015 235.366 16.7188Z" fill="#929292"/>
<g clip-path="url(#clip1_137_418)">
<path d="M249.001 21C246.239 21 244.001 18.7615 244.001 16C244.001 13.2385 246.239 11 249.001 11C251.762 11 254.001 13.2385 254.001 16C254.001 18.7615 251.762 21 249.001 21ZM249.001 20C250.062 20 251.079 19.5786 251.829 18.8284C252.579 18.0783 253.001 17.0609 253.001 16C253.001 14.9391 252.579 13.9217 251.829 13.1716C251.079 12.4214 250.062 12 249.001 12C247.94 12 246.922 12.4214 246.172 13.1716C245.422 13.9217 245.001 14.9391 245.001 16C245.001 17.0609 245.422 18.0783 246.172 18.8284C246.922 19.5786 247.94 20 249.001 20ZM248.501 13.5H249.501V14.5H248.501V13.5ZM248.501 15.5H249.501V18.5H248.501V15.5Z" fill="#929292"/>
</g>
<path d="M167.828 39.1818V27.3636H168.585V39.1818H167.828ZM170.196 31.0291C170.147 30.5921 169.944 30.2536 169.587 30.0135C169.23 29.7704 168.78 29.6488 168.239 29.6488C167.851 29.6488 167.515 29.7103 167.232 29.8335C166.949 29.9535 166.729 30.1197 166.572 30.332C166.418 30.5413 166.341 30.7798 166.341 31.0476C166.341 31.2723 166.394 31.4661 166.498 31.6293C166.606 31.7924 166.746 31.9293 166.918 32.0401C167.094 32.1478 167.282 32.2386 167.482 32.3125C167.682 32.3833 167.874 32.4418 168.059 32.4879L168.982 32.728C169.284 32.8018 169.593 32.9019 169.91 33.0281C170.227 33.1542 170.521 33.3204 170.792 33.5266C171.062 33.7328 171.281 33.9883 171.447 34.293C171.616 34.5977 171.701 34.9624 171.701 35.3871C171.701 35.9226 171.563 36.3981 171.286 36.8136C171.012 37.229 170.613 37.5568 170.09 37.7969C169.57 38.0369 168.94 38.157 168.202 38.157C167.494 38.157 166.881 38.0446 166.364 37.82C165.847 37.5953 165.443 37.2768 165.15 36.8643C164.858 36.4489 164.696 35.9564 164.666 35.3871H166.097C166.124 35.7287 166.235 36.0134 166.429 36.2411C166.626 36.4658 166.877 36.6335 167.181 36.7443C167.489 36.852 167.826 36.9059 168.192 36.9059C168.596 36.9059 168.954 36.8428 169.268 36.7166C169.585 36.5874 169.834 36.4089 170.016 36.1811C170.198 35.9503 170.288 35.681 170.288 35.3732C170.288 35.0932 170.208 34.8639 170.048 34.6854C169.891 34.5069 169.677 34.3591 169.407 34.2422C169.139 34.1252 168.836 34.0221 168.497 33.9329L167.38 33.6282C166.623 33.422 166.023 33.1188 165.58 32.7188C165.139 32.3187 164.919 31.7893 164.919 31.1307C164.919 30.5859 165.067 30.1104 165.363 29.7042C165.658 29.2979 166.058 28.9825 166.563 28.7578C167.068 28.5301 167.637 28.4162 168.271 28.4162C168.911 28.4162 169.476 28.5285 169.965 28.7532C170.458 28.9779 170.845 29.2872 171.129 29.6811C171.412 30.072 171.559 30.5213 171.572 31.0291H170.196ZM176.438 38.1293C175.804 38.1293 175.238 38.02 174.739 37.8015C174.244 37.583 173.851 37.2798 173.562 36.892C173.276 36.5012 173.122 36.0488 173.1 35.5348H174.55C174.568 35.8149 174.662 36.058 174.831 36.2642C175.004 36.4673 175.228 36.6243 175.505 36.7351C175.782 36.8459 176.09 36.9013 176.429 36.9013C176.801 36.9013 177.13 36.8366 177.417 36.7074C177.706 36.5781 177.932 36.3981 178.095 36.1673C178.258 35.9334 178.34 35.6641 178.34 35.3594C178.34 35.0424 178.258 34.7638 178.095 34.5238C177.935 34.2807 177.7 34.0898 177.389 33.9513C177.081 33.8129 176.709 33.7436 176.272 33.7436H175.473V32.5803H176.272C176.623 32.5803 176.93 32.5172 177.195 32.391C177.463 32.2648 177.672 32.0894 177.823 31.8647C177.974 31.637 178.049 31.3707 178.049 31.0661C178.049 30.7737 177.983 30.5198 177.851 30.3043C177.721 30.0858 177.537 29.915 177.297 29.7919C177.06 29.6688 176.78 29.6072 176.456 29.6072C176.149 29.6072 175.861 29.6642 175.593 29.7781C175.328 29.8888 175.113 30.0489 174.947 30.2582C174.781 30.4644 174.691 30.7121 174.679 31.0014H173.299C173.314 30.4905 173.465 30.0412 173.751 29.6534C174.04 29.2656 174.422 28.9625 174.896 28.744C175.37 28.5254 175.896 28.4162 176.475 28.4162C177.081 28.4162 177.604 28.5347 178.044 28.7717C178.488 29.0056 178.829 29.3179 179.069 29.7088C179.312 30.0997 179.432 30.5275 179.429 30.9922C179.432 31.5215 179.285 31.9709 178.986 32.3402C178.691 32.7095 178.297 32.9573 177.804 33.0835V33.1573C178.432 33.2527 178.919 33.502 179.263 33.9052C179.611 34.3084 179.783 34.8085 179.78 35.4055C179.783 35.9257 179.639 36.3919 179.346 36.8043C179.057 37.2167 178.662 37.5414 178.16 37.7784C177.658 38.0123 177.084 38.1293 176.438 38.1293ZM182.93 36.7074L182.861 37.2106C182.815 37.5799 182.736 37.9646 182.626 38.3647C182.518 38.7679 182.406 39.1418 182.289 39.4865C182.175 39.8312 182.081 40.1051 182.007 40.3082H181.028C181.068 40.1174 181.124 39.8589 181.194 39.5327C181.265 39.2095 181.335 38.8479 181.402 38.4478C181.47 38.0477 181.521 37.6399 181.555 37.2244L181.601 36.7074H182.93ZM187.68 38.157C186.95 38.1539 186.327 37.9615 185.81 37.5799C185.293 37.1983 184.898 36.6428 184.624 35.9134C184.35 35.1839 184.213 34.3053 184.213 33.2773C184.213 32.2525 184.35 31.3769 184.624 30.6506C184.901 29.9242 185.298 29.3703 185.815 28.9886C186.335 28.607 186.957 28.4162 187.68 28.4162C188.403 28.4162 189.023 28.6085 189.54 28.9933C190.057 29.3749 190.453 29.9289 190.727 30.6552C191.004 31.3784 191.142 32.2525 191.142 33.2773C191.142 34.3084 191.005 35.1886 190.731 35.918C190.457 36.6443 190.062 37.1998 189.545 37.5845C189.028 37.9661 188.406 38.157 187.68 38.157ZM187.68 36.9244C188.32 36.9244 188.82 36.612 189.18 35.9872C189.543 35.3625 189.725 34.4592 189.725 33.2773C189.725 32.4925 189.642 31.8293 189.476 31.2876C189.313 30.7429 189.077 30.3305 188.769 30.0504C188.465 29.7673 188.102 29.6257 187.68 29.6257C187.043 29.6257 186.543 29.9396 186.18 30.5675C185.816 31.1953 185.633 32.0986 185.63 33.2773C185.63 34.0652 185.712 34.7315 185.875 35.2763C186.041 35.8179 186.276 36.2288 186.581 36.5089C186.886 36.7859 187.252 36.9244 187.68 36.9244ZM195.941 38.157C195.212 38.1539 194.589 37.9615 194.072 37.5799C193.555 37.1983 193.159 36.6428 192.885 35.9134C192.611 35.1839 192.475 34.3053 192.475 33.2773C192.475 32.2525 192.611 31.3769 192.885 30.6506C193.162 29.9242 193.559 29.3703 194.076 28.9886C194.597 28.607 195.218 28.4162 195.941 28.4162C196.665 28.4162 197.285 28.6085 197.802 28.9933C198.319 29.3749 198.714 29.9289 198.988 30.6552C199.265 31.3784 199.404 32.2525 199.404 33.2773C199.404 34.3084 199.267 35.1886 198.993 35.918C198.719 36.6443 198.324 37.1998 197.807 37.5845C197.29 37.9661 196.668 38.157 195.941 38.157ZM195.941 36.9244C196.582 36.9244 197.082 36.612 197.442 35.9872C197.805 35.3625 197.987 34.4592 197.987 33.2773C197.987 32.4925 197.903 31.8293 197.737 31.2876C197.574 30.7429 197.339 30.3305 197.031 30.0504C196.726 29.7673 196.363 29.6257 195.941 29.6257C195.304 29.6257 194.804 29.9396 194.441 30.5675C194.078 31.1953 193.895 32.0986 193.892 33.2773C193.892 34.0652 193.973 34.7315 194.136 35.2763C194.303 35.8179 194.538 36.2288 194.843 36.5089C195.147 36.7859 195.514 36.9244 195.941 36.9244ZM204.203 38.157C203.474 38.1539 202.85 37.9615 202.333 37.5799C201.816 37.1983 201.421 36.6428 201.147 35.9134C200.873 35.1839 200.736 34.3053 200.736 33.2773C200.736 32.2525 200.873 31.3769 201.147 30.6506C201.424 29.9242 201.821 29.3703 202.338 28.9886C202.858 28.607 203.48 28.4162 204.203 28.4162C204.926 28.4162 205.546 28.6085 206.064 28.9933C206.581 29.3749 206.976 29.9289 207.25 30.6552C207.527 31.3784 207.665 32.2525 207.665 33.2773C207.665 34.3084 207.528 35.1886 207.255 35.918C206.981 36.6443 206.585 37.1998 206.068 37.5845C205.551 37.9661 204.929 38.157 204.203 38.157ZM204.203 36.9244C204.843 36.9244 205.343 36.612 205.703 35.9872C206.067 35.3625 206.248 34.4592 206.248 33.2773C206.248 32.4925 206.165 31.8293 205.999 31.2876C205.836 30.7429 205.6 30.3305 205.293 30.0504C204.988 29.7673 204.625 29.6257 204.203 29.6257C203.566 29.6257 203.066 29.9396 202.703 30.5675C202.34 31.1953 202.156 32.0986 202.153 33.2773C202.153 34.0652 202.235 34.7315 202.398 35.2763C202.564 35.8179 202.8 36.2288 203.104 36.5089C203.409 36.7859 203.775 36.9244 204.203 36.9244ZM209.758 38.0877C209.506 38.0877 209.289 37.9985 209.107 37.82C208.926 37.6384 208.835 37.4199 208.835 37.1644C208.835 36.9121 208.926 36.6966 209.107 36.5181C209.289 36.3365 209.506 36.2457 209.758 36.2457C210.011 36.2457 210.228 36.3365 210.409 36.5181C210.591 36.6966 210.682 36.9121 210.682 37.1644C210.682 37.3337 210.638 37.4891 210.552 37.6307C210.469 37.7692 210.358 37.88 210.22 37.9631C210.081 38.0462 209.928 38.0877 209.758 38.0877ZM215.331 38.157C214.601 38.1539 213.978 37.9615 213.461 37.5799C212.944 37.1983 212.549 36.6428 212.275 35.9134C212.001 35.1839 211.864 34.3053 211.864 33.2773C211.864 32.2525 212.001 31.3769 212.275 30.6506C212.552 29.9242 212.949 29.3703 213.466 28.9886C213.986 28.607 214.608 28.4162 215.331 28.4162C216.054 28.4162 216.674 28.6085 217.191 28.9933C217.708 29.3749 218.104 29.9289 218.378 30.6552C218.655 31.3784 218.793 32.2525 218.793 33.2773C218.793 34.3084 218.656 35.1886 218.382 35.918C218.108 36.6443 217.713 37.1998 217.196 37.5845C216.679 37.9661 216.057 38.157 215.331 38.157ZM215.331 36.9244C215.971 36.9244 216.471 36.612 216.831 35.9872C217.194 35.3625 217.376 34.4592 217.376 33.2773C217.376 32.4925 217.293 31.8293 217.127 31.2876C216.963 30.7429 216.728 30.3305 216.42 30.0504C216.116 29.7673 215.752 29.6257 215.331 29.6257C214.694 29.6257 214.194 29.9396 213.83 30.5675C213.467 31.1953 213.284 32.0986 213.281 33.2773C213.281 34.0652 213.363 34.7315 213.526 35.2763C213.692 35.8179 213.927 36.2288 214.232 36.5089C214.537 36.7859 214.903 36.9244 215.331 36.9244ZM223.592 38.157C222.863 38.1539 222.24 37.9615 221.723 37.5799C221.206 37.1983 220.81 36.6428 220.536 35.9134C220.262 35.1839 220.125 34.3053 220.125 33.2773C220.125 32.2525 220.262 31.3769 220.536 30.6506C220.813 29.9242 221.21 29.3703 221.727 28.9886C222.247 28.607 222.869 28.4162 223.592 28.4162C224.316 28.4162 224.936 28.6085 225.453 28.9933C225.97 29.3749 226.365 29.9289 226.639 30.6552C226.916 31.3784 227.055 32.2525 227.055 33.2773C227.055 34.3084 226.918 35.1886 226.644 35.918C226.37 36.6443 225.974 37.1998 225.457 37.5845C224.94 37.9661 224.319 38.157 223.592 38.157ZM223.592 36.9244C224.233 36.9244 224.733 36.612 225.093 35.9872C225.456 35.3625 225.637 34.4592 225.637 33.2773C225.637 32.4925 225.554 31.8293 225.388 31.2876C225.225 30.7429 224.99 30.3305 224.682 30.0504C224.377 29.7673 224.014 29.6257 223.592 29.6257C222.955 29.6257 222.455 29.9396 222.092 30.5675C221.729 31.1953 221.546 32.0986 221.543 33.2773C221.543 34.0652 221.624 34.7315 221.787 35.2763C221.954 35.8179 222.189 36.2288 222.494 36.5089C222.798 36.7859 223.165 36.9244 223.592 36.9244ZM238.082 28.5455H239.513V34.7638C239.513 35.4255 239.358 36.0118 239.047 36.5227C238.736 37.0305 238.299 37.4306 237.736 37.723C237.173 38.0123 236.512 38.157 235.755 38.157C235.001 38.157 234.343 38.0123 233.779 37.723C233.216 37.4306 232.779 37.0305 232.468 36.5227C232.158 36.0118 232.002 35.4255 232.002 34.7638V28.5455H233.429V34.6484C233.429 35.0762 233.522 35.4563 233.71 35.7887C233.901 36.1211 234.17 36.3827 234.518 36.5735C234.866 36.7612 235.278 36.8551 235.755 36.8551C236.235 36.8551 236.649 36.7612 236.997 36.5735C237.348 36.3827 237.616 36.1211 237.8 35.7887C237.988 35.4563 238.082 35.0762 238.082 34.6484V28.5455ZM246.614 31.0291C246.564 30.5921 246.361 30.2536 246.004 30.0135C245.647 29.7704 245.198 29.6488 244.656 29.6488C244.269 29.6488 243.933 29.7103 243.65 29.8335C243.367 29.9535 243.147 30.1197 242.99 30.332C242.836 30.5413 242.759 30.7798 242.759 31.0476C242.759 31.2723 242.811 31.4661 242.916 31.6293C243.024 31.7924 243.164 31.9293 243.336 32.0401C243.511 32.1478 243.699 32.2386 243.899 32.3125C244.099 32.3833 244.292 32.4418 244.476 32.4879L245.4 32.728C245.701 32.8018 246.01 32.9019 246.327 33.0281C246.644 33.1542 246.938 33.3204 247.209 33.5266C247.48 33.7328 247.699 33.9883 247.865 34.293C248.034 34.5977 248.119 34.9624 248.119 35.3871C248.119 35.9226 247.98 36.3981 247.703 36.8136C247.429 37.229 247.031 37.5568 246.508 37.7969C245.987 38.0369 245.358 38.157 244.619 38.157C243.912 38.157 243.299 38.0446 242.782 37.82C242.265 37.5953 241.86 37.2768 241.568 36.8643C241.276 36.4489 241.114 35.9564 241.083 35.3871H242.514C242.542 35.7287 242.653 36.0134 242.847 36.2411C243.044 36.4658 243.294 36.6335 243.599 36.7443C243.907 36.852 244.244 36.9059 244.61 36.9059C245.013 36.9059 245.372 36.8428 245.686 36.7166C246.003 36.5874 246.252 36.4089 246.434 36.1811C246.615 35.9503 246.706 35.681 246.706 35.3732C246.706 35.0932 246.626 34.8639 246.466 34.6854C246.309 34.5069 246.095 34.3591 245.824 34.2422C245.557 34.1252 245.253 34.0221 244.915 33.9329L243.798 33.6282C243.041 33.422 242.44 33.1188 241.997 32.7188C241.557 32.3187 241.337 31.7893 241.337 31.1307C241.337 30.5859 241.485 30.1104 241.78 29.7042C242.076 29.2979 242.476 28.9825 242.981 28.7578C243.485 28.5301 244.055 28.4162 244.689 28.4162C245.329 28.4162 245.894 28.5285 246.383 28.7532C246.875 28.9779 247.263 29.2872 247.546 29.6811C247.829 30.072 247.977 30.5213 247.989 31.0291H246.614ZM252.754 38H249.693V28.5455H252.851C253.777 28.5455 254.573 28.7347 255.238 29.1133C255.902 29.4888 256.412 30.0289 256.766 30.7337C257.123 31.4354 257.301 32.2771 257.301 33.2589C257.301 34.2437 257.121 35.0901 256.761 35.7979C256.404 36.5058 255.887 37.0505 255.21 37.4322C254.533 37.8107 253.714 38 252.754 38ZM251.12 36.7536H252.676C253.396 36.7536 253.994 36.6181 254.471 36.3473C254.948 36.0734 255.305 35.6779 255.542 35.1609C255.779 34.6407 255.898 34.0067 255.898 33.2589C255.898 32.5172 255.779 31.8878 255.542 31.3707C255.308 30.8537 254.959 30.4613 254.494 30.1935C254.03 29.9258 253.453 29.7919 252.763 29.7919H251.12V36.7536Z" fill="white"/>
<g clip-path="url(#clip2_137_418)">
<rect x="0.000732422" y="66" width="287" height="134.968" rx="15.5135" fill="#222222" fill-opacity="0.7"/>
<path d="M38.7845 118.746C47.3524 118.746 54.298 111.8 54.298 103.232C54.298 94.6644 47.3524 87.7188 38.7845 87.7188C30.2166 87.7188 23.271 94.6644 23.271 103.232C23.271 111.8 30.2166 118.746 38.7845 118.746Z" fill="#F7931A"/>
<path d="M45.7541 101.312C46.0586 99.28 44.5102 98.1873 42.3945 97.4581L43.081 94.7045L41.4055 94.2876L40.7365 96.9685C40.2963 96.858 39.8445 96.7552 39.3936 96.6524L40.0675 93.954L38.392 93.5361L37.7055 96.2888C37.341 96.2054 36.9822 96.124 36.6351 96.0367L36.637 96.028L34.3255 95.4511L33.8795 97.241C33.8795 97.241 35.1235 97.526 35.0973 97.5435C35.776 97.7131 35.8982 98.1621 35.8779 98.5189L35.0964 101.656C35.1429 101.667 35.203 101.685 35.2709 101.711L35.0935 101.667L33.9978 106.061C33.9144 106.267 33.704 106.576 33.2289 106.459C33.2464 106.483 32.0111 106.155 32.0111 106.155L31.1792 108.073L33.3608 108.617C33.7661 108.719 34.1636 108.826 34.5544 108.926L33.8611 111.71L35.5356 112.127L36.2221 109.373C36.6797 109.497 37.1238 109.611 37.5582 109.72L36.8736 112.462L38.5491 112.879L39.2423 110.1C42.1007 110.641 44.2493 110.423 45.154 107.838C45.8831 105.757 45.1181 104.556 43.6143 103.773C44.7099 103.521 45.534 102.801 45.7541 101.312ZM41.9242 106.682C41.4075 108.764 37.9024 107.638 36.766 107.356L37.6871 103.666C38.8235 103.951 42.4663 104.512 41.9242 106.682ZM42.443 101.282C41.9708 103.176 39.0542 102.213 38.1089 101.977L38.9427 98.6323C39.8881 98.8679 42.9355 99.3072 42.443 101.282Z" fill="white"/>
<path d="M63.2532 108.732V97.8233H67.2482C68.0224 97.8233 68.6634 97.9512 69.1712 98.2069C69.679 98.459 70.0589 98.8017 70.3111 99.2349C70.5632 99.6646 70.6893 100.149 70.6893 100.689C70.6893 101.144 70.6058 101.527 70.4389 101.84C70.272 102.149 70.0483 102.397 69.7678 102.585C69.4908 102.77 69.1854 102.905 68.8516 102.99V103.097C69.2138 103.115 69.5671 103.232 69.9116 103.448C70.2596 103.661 70.5472 103.965 70.7745 104.359C71.0018 104.753 71.1154 105.233 71.1154 105.797C71.1154 106.355 70.984 106.856 70.7212 107.3C70.462 107.74 70.0607 108.09 69.5174 108.349C68.9741 108.605 68.2798 108.732 67.4347 108.732H63.2532ZM64.8991 107.321H67.2749C68.0632 107.321 68.6278 107.168 68.9688 106.863C69.3097 106.557 69.4801 106.176 69.4801 105.718C69.4801 105.373 69.3931 105.057 69.2191 104.769C69.0451 104.482 68.7965 104.253 68.4734 104.082C68.1538 103.912 67.7738 103.827 67.3335 103.827H64.8991V107.321ZM64.8991 102.543H67.1044C67.4737 102.543 67.8058 102.472 68.1005 102.33C68.3988 102.188 68.6349 101.989 68.8089 101.733C68.9865 101.474 69.0753 101.169 69.0753 100.817C69.0753 100.366 68.9173 99.9877 68.6012 99.6824C68.2852 99.377 67.8004 99.2243 67.147 99.2243H64.8991V102.543ZM72.3797 99.2402V97.8233H80.8225V99.2402H77.4187V108.732H75.7781V99.2402H72.3797ZM91.1301 101.371H89.4682C89.4043 101.016 89.2853 100.703 89.1113 100.433C88.9373 100.164 88.7242 99.9345 88.4721 99.7463C88.22 99.5581 87.9377 99.416 87.6252 99.3201C87.3162 99.2243 86.9877 99.1763 86.6397 99.1763C86.0112 99.1763 85.4483 99.3343 84.9512 99.6504C84.4575 99.9664 84.0669 100.43 83.7793 101.041C83.4952 101.651 83.3531 102.397 83.3531 103.278C83.3531 104.166 83.4952 104.915 83.7793 105.526C84.0669 106.137 84.4593 106.598 84.9565 106.911C85.4536 107.223 86.0129 107.379 86.6344 107.379C86.9789 107.379 87.3056 107.333 87.6145 107.241C87.927 107.145 88.2093 107.005 88.4615 106.82C88.7136 106.635 88.9267 106.41 89.1007 106.144C89.2782 105.874 89.4007 105.565 89.4682 105.217L91.1301 105.222C91.0414 105.758 90.8691 106.252 90.6134 106.703C90.3613 107.15 90.0364 107.537 89.6387 107.864C89.2445 108.187 88.7935 108.438 88.2857 108.615C87.7779 108.793 87.2239 108.882 86.6237 108.882C85.6791 108.882 84.8375 108.658 84.0989 108.21C83.3602 107.759 82.7779 107.115 82.3517 106.277C81.9291 105.439 81.7178 104.439 81.7178 103.278C81.7178 102.113 81.9309 101.113 82.357 100.279C82.7832 99.4409 83.3656 98.7981 84.1042 98.3507C84.8428 97.8997 85.6827 97.6742 86.6237 97.6742C87.2026 97.6742 87.7423 97.7576 88.2431 97.9245C88.7473 98.0879 89.2001 98.3294 89.6014 98.649C90.0026 98.965 90.3347 99.3521 90.5975 99.8102C90.8602 100.265 91.0378 100.785 91.1301 101.371ZM96.9767 97.312L93.461 110.373H92.0388L95.5544 97.312H96.9767ZM105.323 97.8233H106.974V104.998C106.974 105.762 106.795 106.438 106.436 107.028C106.077 107.614 105.573 108.075 104.923 108.413C104.273 108.747 103.512 108.914 102.638 108.914C101.768 108.914 101.008 108.747 100.358 108.413C99.7084 108.075 99.2042 107.614 98.8455 107.028C98.4868 106.438 98.3075 105.762 98.3075 104.998V97.8233H99.9534V104.865C99.9534 105.359 100.062 105.797 100.278 106.181C100.499 106.564 100.809 106.866 101.211 107.086C101.612 107.303 102.088 107.411 102.638 107.411C103.192 107.411 103.67 107.303 104.071 107.086C104.476 106.866 104.785 106.564 104.998 106.181C105.214 105.797 105.323 105.359 105.323 104.865V97.8233ZM115.167 100.689C115.11 100.185 114.876 99.7942 114.464 99.5172C114.052 99.2367 113.533 99.0964 112.908 99.0964C112.461 99.0964 112.074 99.1674 111.747 99.3095C111.421 99.448 111.167 99.6397 110.986 99.8848C110.808 100.126 110.719 100.401 110.719 100.71C110.719 100.97 110.78 101.193 110.9 101.382C111.025 101.57 111.186 101.728 111.385 101.856C111.587 101.98 111.804 102.085 112.035 102.17C112.266 102.252 112.488 102.319 112.701 102.372L113.766 102.649C114.114 102.735 114.471 102.85 114.837 102.996C115.203 103.141 115.542 103.333 115.854 103.571C116.167 103.809 116.419 104.104 116.611 104.455C116.806 104.807 116.903 105.227 116.903 105.718C116.903 106.335 116.744 106.884 116.424 107.363C116.108 107.843 115.648 108.221 115.044 108.498C114.444 108.775 113.718 108.914 112.866 108.914C112.049 108.914 111.342 108.784 110.746 108.525C110.149 108.265 109.682 107.898 109.345 107.422C109.008 106.943 108.821 106.374 108.786 105.718H110.437C110.469 106.112 110.597 106.44 110.82 106.703C111.048 106.962 111.337 107.156 111.689 107.284C112.044 107.408 112.433 107.47 112.855 107.47C113.32 107.47 113.734 107.397 114.096 107.252C114.462 107.102 114.75 106.896 114.959 106.634C115.169 106.367 115.274 106.057 115.274 105.702C115.274 105.378 115.181 105.114 114.997 104.908C114.815 104.702 114.569 104.531 114.256 104.396C113.947 104.262 113.597 104.143 113.207 104.04L111.918 103.688C111.044 103.45 110.352 103.1 109.84 102.639C109.332 102.177 109.079 101.566 109.079 100.806C109.079 100.178 109.249 99.6291 109.59 99.1603C109.931 98.6916 110.392 98.3276 110.975 98.0684C111.557 97.8056 112.214 97.6742 112.946 97.6742C113.684 97.6742 114.336 97.8038 114.901 98.063C115.469 98.3223 115.916 98.6792 116.243 99.1337C116.57 99.5847 116.74 100.103 116.754 100.689H115.167ZM122.252 108.732H118.72V97.8233H122.364C123.433 97.8233 124.351 98.0417 125.118 98.4785C125.885 98.9118 126.473 99.535 126.881 100.348C127.293 101.158 127.499 102.129 127.499 103.262C127.499 104.398 127.291 105.375 126.876 106.192C126.464 107.008 125.867 107.637 125.086 108.077C124.305 108.514 123.36 108.732 122.252 108.732ZM120.366 107.294H122.161C122.992 107.294 123.683 107.138 124.234 106.825C124.784 106.509 125.196 106.053 125.469 105.456C125.743 104.856 125.879 104.125 125.879 103.262C125.879 102.406 125.743 101.68 125.469 101.083C125.199 100.487 124.796 100.034 124.26 99.725C123.724 99.416 123.058 99.2615 122.263 99.2615H120.366V107.294ZM138.456 101.371H136.794C136.73 101.016 136.611 100.703 136.437 100.433C136.263 100.164 136.05 99.9345 135.798 99.7463C135.546 99.5581 135.264 99.416 134.951 99.3201C134.642 99.2243 134.314 99.1763 133.966 99.1763C133.337 99.1763 132.774 99.3343 132.277 99.6504C131.784 99.9664 131.393 100.43 131.105 101.041C130.821 101.651 130.679 102.397 130.679 103.278C130.679 104.166 130.821 104.915 131.105 105.526C131.393 106.137 131.785 106.598 132.283 106.911C132.78 107.223 133.339 107.379 133.961 107.379C134.305 107.379 134.632 107.333 134.941 107.241C135.253 107.145 135.535 107.005 135.788 106.82C136.04 106.635 136.253 106.41 136.427 106.144C136.604 105.874 136.727 105.565 136.794 105.217L138.456 105.222C138.368 105.758 138.195 106.252 137.94 106.703C137.687 107.15 137.363 107.537 136.965 107.864C136.571 108.187 136.12 108.438 135.612 108.615C135.104 108.793 134.55 108.882 133.95 108.882C133.005 108.882 132.164 108.658 131.425 108.21C130.686 107.759 130.104 107.115 129.678 106.277C129.255 105.439 129.044 104.439 129.044 103.278C129.044 102.113 129.257 101.113 129.683 100.279C130.109 99.4409 130.692 98.7981 131.43 98.3507C132.169 97.8997 133.009 97.6742 133.95 97.6742C134.529 97.6742 135.069 97.7576 135.569 97.9245C136.073 98.0879 136.526 98.3294 136.928 98.649C137.329 98.965 137.661 99.3521 137.924 99.8102C138.186 100.265 138.364 100.785 138.456 101.371Z" fill="white"/>
<path d="M30.1886 138.714V153.259H27.9869V140.916H27.9017L24.4216 143.188V141.086L28.0508 138.714H30.1886ZM38.7599 138.515C39.4086 138.52 40.0478 138.638 40.6775 138.87C41.3073 139.102 41.8754 139.481 42.3821 140.006C42.8934 140.532 43.3006 141.242 43.6037 142.137C43.9114 143.027 44.0677 144.135 44.0724 145.461C44.0724 146.735 43.9446 147.869 43.6889 148.863C43.4332 149.853 43.0663 150.688 42.588 151.37C42.1146 152.052 41.5393 152.57 40.8622 152.925C40.1851 153.281 39.4228 153.458 38.5753 153.458C37.7088 153.458 36.9394 153.288 36.267 152.947C35.5947 152.606 35.0478 152.135 34.6264 151.533C34.205 150.927 33.9422 150.231 33.838 149.445H36.0042C36.1463 150.07 36.4351 150.577 36.8707 150.965C37.3111 151.349 37.8792 151.541 38.5753 151.541C39.6406 151.541 40.4716 151.077 41.0682 150.148C41.6647 149.216 41.9654 147.914 41.9701 146.242H41.8565C41.6103 146.649 41.3025 147 40.9332 147.293C40.5686 147.587 40.1591 147.814 39.7045 147.975C39.25 148.136 38.7647 148.217 38.2486 148.217C37.4105 148.217 36.6482 148.011 35.9616 147.599C35.2751 147.187 34.7282 146.621 34.321 145.901C33.9138 145.182 33.7102 144.36 33.7102 143.437C33.7102 142.518 33.9185 141.685 34.3352 140.937C34.7566 140.189 35.3437 139.597 36.0966 139.161C36.8541 138.721 37.7419 138.505 38.7599 138.515ZM38.767 140.362C38.213 140.362 37.7135 140.499 37.2684 140.773C36.8281 141.043 36.4801 141.41 36.2244 141.874C35.9687 142.334 35.8409 142.845 35.8409 143.408C35.8409 143.972 35.964 144.483 36.2102 144.943C36.4611 145.397 36.8021 145.759 37.2329 146.029C37.6685 146.294 38.1657 146.427 38.7244 146.427C39.1411 146.427 39.5293 146.346 39.8892 146.185C40.249 146.024 40.5639 145.802 40.8338 145.518C41.1037 145.229 41.3144 144.902 41.4659 144.538C41.6174 144.173 41.6932 143.79 41.6932 143.387C41.6932 142.852 41.5653 142.355 41.3096 141.896C41.0587 141.436 40.713 141.067 40.2727 140.788C39.8324 140.504 39.3305 140.362 38.767 140.362ZM48.702 151.271L48.5954 152.045C48.5244 152.613 48.4037 153.205 48.2332 153.82C48.0675 154.441 47.8947 155.016 47.7147 155.546C47.5396 156.077 47.3951 156.498 47.2815 156.81H45.7758C45.8374 156.517 45.9226 156.119 46.0315 155.617C46.1404 155.12 46.2469 154.564 46.3511 153.948C46.4553 153.333 46.5334 152.705 46.5855 152.066L46.6565 151.271H48.702ZM51.5915 153.259L57.9409 140.702V140.596H50.5971V138.714H60.2136V140.66L53.8855 153.259H51.5915ZM68.0019 138.714V153.259H65.8002V140.916H65.715L62.2348 143.188V141.086L65.8641 138.714H68.0019ZM71.7366 153.259V151.668L76.6584 146.569C77.184 146.015 77.6172 145.53 77.9581 145.113C78.3038 144.692 78.5618 144.291 78.7323 143.913C78.9027 143.534 78.988 143.131 78.988 142.705C78.988 142.222 78.8743 141.806 78.6471 141.455C78.4198 141.1 78.1097 140.828 77.7167 140.639C77.3237 140.444 76.881 140.347 76.3885 140.347C75.8677 140.347 75.4132 140.454 75.0249 140.667C74.6366 140.88 74.3383 141.181 74.13 141.569C73.9217 141.957 73.8175 142.412 73.8175 142.933H71.7223C71.7223 142.047 71.9259 141.273 72.3331 140.61C72.7403 139.947 73.2991 139.434 74.0093 139.069C74.7195 138.7 75.5268 138.515 76.4312 138.515C77.345 138.515 78.1499 138.697 78.8459 139.062C79.5467 139.422 80.0936 139.914 80.4865 140.539C80.8795 141.159 81.076 141.86 81.076 142.641C81.076 143.181 80.9742 143.709 80.7706 144.225C80.5718 144.741 80.2238 145.317 79.7266 145.951C79.2294 146.581 78.5382 147.345 77.6527 148.245L74.7621 151.271V151.377H81.3104V153.259H71.7366ZM85.2297 153.394C84.8415 153.394 84.5077 153.257 84.2283 152.982C83.949 152.703 83.8093 152.367 83.8093 151.974C83.8093 151.586 83.949 151.254 84.2283 150.979C84.5077 150.7 84.8415 150.56 85.2297 150.56C85.618 150.56 85.9518 150.7 86.2312 150.979C86.5105 151.254 86.6502 151.586 86.6502 151.974C86.6502 152.234 86.5839 152.473 86.4513 152.691C86.3235 152.904 86.153 153.075 85.94 153.202C85.7269 153.33 85.4901 153.394 85.2297 153.394ZM89.2662 153.259V151.668L94.1881 146.569C94.7137 146.015 95.1469 145.53 95.4878 145.113C95.8335 144.692 96.0915 144.291 96.262 143.913C96.4324 143.534 96.5177 143.131 96.5177 142.705C96.5177 142.222 96.404 141.806 96.1767 141.455C95.9495 141.1 95.6393 140.828 95.2464 140.639C94.8534 140.444 94.4106 140.347 93.9182 140.347C93.3974 140.347 92.9428 140.454 92.5546 140.667C92.1663 140.88 91.868 141.181 91.6597 141.569C91.4514 141.957 91.3472 142.412 91.3472 142.933H89.252C89.252 142.047 89.4556 141.273 89.8628 140.61C90.27 139.947 90.8287 139.434 91.539 139.069C92.2492 138.7 93.0565 138.515 93.9608 138.515C94.8747 138.515 95.6796 138.697 96.3756 139.062C97.0764 139.422 97.6232 139.914 98.0162 140.539C98.4092 141.159 98.6057 141.86 98.6057 142.641C98.6057 143.181 98.5039 143.709 98.3003 144.225C98.1015 144.741 97.7535 145.317 97.2563 145.951C96.7591 146.581 96.0678 147.345 95.1824 148.245L92.2918 151.271V151.377H98.8401V153.259H89.2662ZM106.85 138.714V153.259H104.649V140.916H104.563L101.083 143.188V141.086L104.713 138.714H106.85Z" fill="white"/>
<path d="M28.2355 164.453V175.362H26.9145V165.838H26.8505L24.1872 167.606V166.264L26.9145 164.453H28.2355ZM31.5159 175.447C31.2531 175.447 31.0276 175.353 30.8394 175.165C30.6512 174.977 30.5571 174.751 30.5571 174.488C30.5571 174.225 30.6512 174 30.8394 173.812C31.0276 173.624 31.2531 173.529 31.5159 173.529C31.7787 173.529 32.0042 173.624 32.1924 173.812C32.3806 174 32.4747 174.225 32.4747 174.488C32.4747 174.662 32.4303 174.822 32.3415 174.968C32.2563 175.113 32.1409 175.23 31.9953 175.319C31.8532 175.404 31.6934 175.447 31.5159 175.447ZM37.8005 175.511C37.3531 175.504 36.9057 175.419 36.4582 175.255C36.0108 175.092 35.6024 174.817 35.2331 174.43C34.8638 174.039 34.5672 173.512 34.3435 172.848C34.1198 172.18 34.0079 171.342 34.0079 170.333C34.0079 169.367 34.0985 168.512 34.2796 167.766C34.4607 167.017 34.7235 166.386 35.0679 165.875C35.4124 165.36 35.8279 164.969 36.3144 164.703C36.8044 164.437 37.3566 164.304 37.971 164.304C38.5818 164.304 39.1251 164.426 39.601 164.671C40.0804 164.913 40.471 165.25 40.7728 165.683C41.0747 166.116 41.27 166.615 41.3588 167.18H40.0591C39.9383 166.69 39.704 166.283 39.3559 165.96C39.0079 165.637 38.5463 165.475 37.971 165.475C37.1258 165.475 36.46 165.843 35.9735 166.578C35.4905 167.313 35.2473 168.345 35.2437 169.673H35.329C35.5278 169.371 35.764 169.114 36.0374 168.901C36.3144 168.684 36.6198 168.517 36.9536 168.4C37.2874 168.283 37.6407 168.224 38.0136 168.224C38.6386 168.224 39.2103 168.38 39.7288 168.693C40.2473 169.002 40.6628 169.43 40.9753 169.977C41.2878 170.52 41.444 171.143 41.444 171.846C41.444 172.521 41.2931 173.139 40.9912 173.7C40.6894 174.257 40.265 174.701 39.7182 175.032C39.1748 175.358 38.5356 175.518 37.8005 175.511ZM37.8005 174.339C38.248 174.339 38.6493 174.227 39.0044 174.004C39.363 173.78 39.6454 173.48 39.8513 173.103C40.0608 172.727 40.1656 172.308 40.1656 171.846C40.1656 171.395 40.0644 170.985 39.862 170.616C39.6631 170.243 39.3879 169.946 39.0363 169.726C38.6883 169.506 38.2906 169.396 37.8432 169.396C37.5058 169.396 37.1915 169.463 36.9003 169.598C36.6091 169.73 36.3535 169.911 36.1333 170.142C35.9167 170.372 35.7462 170.637 35.6219 170.935C35.4976 171.23 35.4355 171.541 35.4355 171.867C35.4355 172.301 35.5367 172.706 35.7391 173.082C35.9451 173.458 36.2256 173.762 36.5807 173.993C36.9394 174.224 37.346 174.339 37.8005 174.339ZM43.3887 175.362V174.403L46.9896 170.461C47.4122 170 47.7602 169.598 48.0336 169.257C48.3071 168.913 48.5095 168.59 48.6409 168.288C48.7758 167.983 48.8433 167.663 48.8433 167.329C48.8433 166.946 48.7509 166.614 48.5663 166.333C48.3852 166.053 48.1366 165.836 47.8206 165.683C47.5045 165.53 47.1494 165.454 46.7552 165.454C46.3362 165.454 45.9704 165.541 45.6579 165.715C45.349 165.886 45.1093 166.125 44.9388 166.434C44.7719 166.743 44.6884 167.105 44.6884 167.521H43.4313C43.4313 166.882 43.5787 166.321 43.8735 165.838C44.1682 165.355 44.5695 164.978 45.0773 164.708C45.5887 164.439 46.1622 164.304 46.7978 164.304C47.437 164.304 48.0034 164.439 48.497 164.708C48.9907 164.978 49.3777 165.342 49.6583 165.8C49.9388 166.258 50.0791 166.768 50.0791 167.329C50.0791 167.73 50.0063 168.123 49.8607 168.506C49.7186 168.886 49.4701 169.311 49.1149 169.779C48.7634 170.245 48.2751 170.813 47.6501 171.484L45.1998 174.105V174.19H50.2708V175.362H43.3887ZM57.8818 173.316V172.741C57.8818 172.343 57.9635 171.979 58.1269 171.649C58.2938 171.315 58.5353 171.049 58.8513 170.85C59.1709 170.648 59.558 170.546 60.0125 170.546C60.4742 170.546 60.8612 170.648 61.1737 170.85C61.4862 171.049 61.7224 171.315 61.8822 171.649C62.042 171.979 62.1219 172.343 62.1219 172.741V173.316C62.1219 173.714 62.0402 174.08 61.8769 174.414C61.7171 174.744 61.4791 175.01 61.1631 175.213C60.8506 175.412 60.4671 175.511 60.0125 175.511C59.5509 175.511 59.162 175.412 58.846 175.213C58.5299 175.01 58.2902 174.744 58.1269 174.414C57.9635 174.08 57.8818 173.714 57.8818 173.316ZM58.9685 172.741V173.316C58.9685 173.647 59.0466 173.943 59.2029 174.206C59.3591 174.465 59.629 174.595 60.0125 174.595C60.3854 174.595 60.6482 174.465 60.8009 174.206C60.9571 173.943 61.0353 173.647 61.0353 173.316V172.741C61.0353 172.411 60.9607 172.116 60.8115 171.857C60.6624 171.594 60.396 171.463 60.0125 171.463C59.6397 171.463 59.3715 171.594 59.2082 171.857C59.0484 172.116 58.9685 172.411 58.9685 172.741ZM52.4486 167.073V166.498C52.4486 166.1 52.5303 165.736 52.6936 165.406C52.8605 165.072 53.102 164.806 53.4181 164.607C53.7377 164.405 54.1247 164.304 54.5793 164.304C55.0409 164.304 55.428 164.405 55.7405 164.607C56.053 164.806 56.2892 165.072 56.449 165.406C56.6088 165.736 56.6887 166.1 56.6887 166.498V167.073C56.6887 167.471 56.607 167.837 56.4436 168.171C56.2838 168.501 56.0459 168.767 55.7299 168.97C55.4174 169.169 55.0338 169.268 54.5793 169.268C54.1176 169.268 53.7288 169.169 53.4127 168.97C53.0967 168.767 52.857 168.501 52.6936 168.171C52.5303 167.837 52.4486 167.471 52.4486 167.073ZM53.5353 166.498V167.073C53.5353 167.404 53.6134 167.7 53.7696 167.963C53.9259 168.222 54.1958 168.352 54.5793 168.352C54.9522 168.352 55.2149 168.222 55.3676 167.963C55.5239 167.7 55.602 167.404 55.602 167.073V166.498C55.602 166.168 55.5274 165.873 55.3783 165.614C55.2291 165.351 54.9628 165.22 54.5793 165.22C54.2064 165.22 53.9383 165.351 53.775 165.614C53.6152 165.873 53.5353 166.168 53.5353 166.498ZM52.8534 175.362L60.3534 164.453H61.5679L54.0679 175.362H52.8534Z" fill="#097831"/>
<g filter="url(#filter0_d_137_418)">
<path d="M163.325 152.933L177.422 134.128L187.759 144.706L195.277 134.128L205.615 137.654L217.832 129.427L236.627 144.706L246.024 125.902H254.482L261.061 114.149" stroke="#F7931A" stroke-width="1.55135"/>
</g>
</g>
<rect x="0.466138" y="66.4654" width="286.069" height="134.037" rx="15.0481" stroke="url(#paint2_linear_137_418)" stroke-width="0.930811"/>
<defs>
<filter id="filter0_d_137_418" x="154.948" y="106.013" width="114.546" height="55.1414" filterUnits="userSpaceOnUse" color-interpolation-filters="sRGB">
<feFlood flood-opacity="0" result="BackgroundImageFix"/>
<feColorMatrix in="SourceAlpha" type="matrix" values="0 0 0 0 0 0 0 0 0 0 0 0 0 0 0 0 0 0 127 0" result="hardAlpha"/>
<feOffset/>
<feGaussianBlur stdDeviation="3.87838"/>
<feComposite in2="hardAlpha" operator="out"/>
<feColorMatrix type="matrix" values="0 0 0 0 0.968627 0 0 0 0 0.576471 0 0 0 0 0.101961 0 0 0 1 0"/>
<feBlend mode="normal" in2="BackgroundImageFix" result="effect1_dropShadow_137_418"/>
<feBlend mode="normal" in="SourceGraphic" in2="effect1_dropShadow_137_418" result="shape"/>
</filter>
<linearGradient id="paint0_linear_137_418" x1="68.042" y1="-1.97102" x2="66.877" y2="54.0728" gradientUnits="userSpaceOnUse">
<stop stop-color="#EEEEEE"/>
<stop offset="1" stop-color="#888888" stop-opacity="0.5"/>
</linearGradient>
<linearGradient id="paint1_linear_137_418" x1="216.042" y1="-1.97102" x2="214.877" y2="54.0728" gradientUnits="userSpaceOnUse">
<stop stop-color="#EEEEEE"/>
<stop offset="1" stop-color="#888888" stop-opacity="0.5"/>
</linearGradient>
<linearGradient id="paint2_linear_137_418" x1="140.489" y1="60.7839" x2="136.538" y2="209.058" gradientUnits="userSpaceOnUse">
<stop stop-color="#EEEEEE"/>
<stop offset="1" stop-color="#888888" stop-opacity="0.5"/>
</linearGradient>
<clipPath id="clip0_137_418">
<rect width="12" height="12" fill="white" transform="translate(87.0007 10)"/>
</clipPath>
<clipPath id="clip1_137_418">
<rect width="12" height="12" fill="white" transform="translate(243.001 10)"/>
</clipPath>
<clipPath id="clip2_137_418">
<rect x="0.000732422" y="66" width="287" height="134.968" rx="15.5135" fill="white"/>
</clipPath>
</defs>
</svg>
