<svg width="45" height="45" viewBox="0 0 45 45" fill="none" xmlns="http://www.w3.org/2000/svg">
<g clip-path="url(#clip0_22_3825)">
<path d="M7.23733 39.0913C7.06424 40.6365 7.35942 42.0905 7.06115 43.4935L6.74433 43.5321C6.64543 43.305 6.46461 43.0794 6.46152 42.8507C6.43679 41.2066 6.44761 39.5626 6.44761 37.8242C8.23568 37.8242 9.97584 37.8243 11.7145 37.8413C11.8535 37.8413 11.9895 38.073 12.1255 38.1966C11.9478 38.3141 11.7747 38.5242 11.5939 38.5319C10.7455 38.569 9.89393 38.5505 9.04549 38.5505H7.98841L7.89414 38.7421C8.89095 39.4791 9.8352 40.3058 10.8954 40.9378C18.1898 45.2843 25.662 45.5316 33.1156 41.4801C38.9883 38.2863 42.6046 33.2227 43.8487 26.6789C45.3524 18.7769 43.0389 11.9581 37.1724 6.46193C32.6211 2.19417 27.0993 0.329148 20.9021 0.778792C15.2411 1.18981 10.3931 3.52147 6.52952 7.71815C2.78802 11.7773 0.857767 16.5905 0.689314 22.113C0.689314 22.3478 0.435865 22.5765 0.299866 22.8067C0.194777 22.5502 -0.00922273 22.2922 -0.00149555 22.0342C0.14223 17.1344 1.64749 12.6905 4.65645 8.81213C8.33304 4.0731 13.1563 1.1759 19.0939 0.276612C25.6187 -0.710752 31.5269 0.905495 36.6485 5.02801C41.1519 8.65143 43.8812 13.4013 44.7281 19.1478C45.6831 25.619 44.096 31.4751 40.0346 36.5696C36.4121 41.1139 31.6444 43.8628 25.8737 44.725C19.7337 45.6428 14.1377 44.2074 9.10112 40.5901C8.4845 40.1497 7.91268 39.6383 7.23733 39.0913Z" fill="white"/>
<path d="M10.5584 22.4885C10.5565 20.9184 10.8653 19.3633 11.4669 17.9129C12.0686 16.4626 12.9512 15.1455 14.0639 14.0375C15.1767 12.9295 16.4977 12.0525 17.9508 11.457C19.4039 10.8615 20.9605 10.5592 22.5309 10.5676C24.0948 10.5676 25.6433 10.8758 27.088 11.4745C28.5326 12.0733 29.8451 12.951 30.9503 14.0573C32.0555 15.1635 32.9317 16.4768 33.5289 17.9219C34.1261 19.367 34.4326 20.9157 34.4307 22.4793C34.4375 24.0487 34.1339 25.6039 33.5375 27.0556C32.9411 28.5073 32.0636 29.8269 30.9555 30.9384C29.8473 32.0499 28.5304 32.9315 27.0804 33.5325C25.6304 34.1335 24.0758 34.4421 22.5062 34.4404C20.9357 34.4439 19.38 34.1371 17.9284 33.5376C16.4769 32.9381 15.1581 32.0578 14.0479 30.9472C12.9377 29.8365 12.0579 28.5176 11.459 27.066C10.8602 25.6144 10.5541 24.0588 10.5584 22.4885ZM33.7647 22.5194C33.8079 16.4129 28.7018 11.2814 22.5386 11.2397C16.3754 11.198 11.2415 16.3295 11.2291 22.5194C11.2167 28.609 16.2688 33.6848 22.4212 33.7667C28.5735 33.8486 33.7198 28.7279 33.7647 22.5194Z" fill="white"/>
<path d="M33.7648 22.5192C33.72 28.7277 28.5551 33.8499 22.4213 33.7696C16.2875 33.6892 11.2246 28.6164 11.2246 22.5223C11.237 16.3277 16.3817 11.1946 22.5341 11.2425C28.6865 11.2904 33.8081 16.4096 33.7648 22.5192ZM22.8262 30.6004C23.0333 30.5602 23.1569 30.5386 23.2806 30.5108C25.829 29.9221 27.3219 27.4653 26.4997 25.1382C25.9511 23.5853 24.6081 22.9271 23.194 22.3662C22.2667 21.9985 21.3086 21.6724 20.4601 21.1656C19.0801 20.342 18.6412 18.8478 19.2099 17.4217C19.828 15.8888 21.3735 14.9247 22.8494 15.1472C24.6143 15.4129 25.5848 16.4111 26.0021 18.3364C26.05 18.5574 26.2802 18.7381 26.4271 18.9375C26.509 18.7196 26.6759 18.4955 26.662 18.2839C26.5677 16.9488 25.9603 15.8672 24.8275 15.1611C24.2341 14.7902 23.5402 14.5816 22.8277 14.2741C22.8509 14.0917 22.8472 13.907 22.8169 13.7256C22.7185 13.4514 22.6007 13.1844 22.4646 12.9268C22.3657 13.1833 22.2173 13.4305 22.1787 13.6993C22.123 14.0655 22.2451 14.4024 21.6578 14.5322C19.8141 14.9417 18.4974 16.3864 18.329 18.0351C18.1312 19.9882 18.9209 21.3294 20.8789 22.2271C21.9716 22.7293 23.143 23.0646 24.2063 23.6178C26.0608 24.5835 26.5414 26.5119 25.4426 28.2533C24.401 29.902 22.1647 30.3825 20.5807 29.3117C19.5947 28.6442 19.1233 27.697 18.9611 26.5474C18.9363 26.3759 18.7231 26.2384 18.5963 26.0746C18.5005 26.2569 18.3444 26.4315 18.3228 26.6231C18.3019 26.8786 18.3307 27.1358 18.4078 27.3803C18.9363 29.2577 20.2268 30.2821 22.1647 30.6174C22.142 30.9051 22.1466 31.1943 22.1787 31.4812C22.2219 31.6944 22.3811 31.8844 22.4877 32.0853C22.6006 31.8968 22.7675 31.7207 22.8092 31.5182C22.8679 31.2432 22.8262 30.9543 22.8262 30.6004Z" fill="#40C0FF"/>
<path d="M22.8262 30.6007C22.8262 30.9546 22.8679 31.2435 22.8122 31.5124C22.7705 31.7148 22.6036 31.891 22.4908 32.0795C22.3826 31.8786 22.2234 31.6885 22.1817 31.4753C22.1497 31.1885 22.145 30.8993 22.1678 30.6116C20.2298 30.2762 18.9394 29.2518 18.4108 27.3744C18.3338 27.1299 18.3049 26.8728 18.3258 26.6173C18.3475 26.4257 18.5036 26.2511 18.5994 26.0688C18.7261 26.2233 18.9394 26.3778 18.9641 26.5416C19.1264 27.6912 19.5977 28.6384 20.5837 29.3059C22.1678 30.3767 24.404 29.8961 25.4457 28.2474C26.5429 26.5076 26.0638 24.5792 24.2093 23.6119C23.1461 23.0603 21.9746 22.725 20.882 22.2213C18.9239 21.3235 18.1342 19.9823 18.332 18.0292C18.5005 16.379 19.8172 14.9389 21.6609 14.5263C22.2482 14.3965 22.1245 14.0628 22.1817 13.6935C22.2203 13.4277 22.3687 13.1805 22.4676 12.9209C22.6038 13.1785 22.7215 13.4455 22.82 13.7198C22.8503 13.9011 22.8539 14.0859 22.8308 14.2683C23.5432 14.5773 24.2371 14.7844 24.8306 15.1552C25.9634 15.8614 26.5707 16.943 26.665 18.278C26.6789 18.4897 26.5105 18.7137 26.4301 18.9316C26.2756 18.7323 26.053 18.5515 26.0051 18.3305C25.5878 16.4053 24.6142 15.4071 22.8524 15.1413C21.3688 14.9188 19.8265 15.883 19.2129 17.4158C18.6442 18.8404 19.0831 20.3362 20.4632 21.1597C21.3116 21.6666 22.2713 21.9926 23.1971 22.3603C24.6111 22.9212 25.9541 23.5795 26.5027 25.1324C27.3249 27.4594 25.832 29.9224 23.2836 30.5049C23.1569 30.5389 23.0332 30.5606 22.8262 30.6007Z" fill="black"/>
</g>
<defs>
<clipPath id="clip0_22_3825">
<rect width="45" height="45" fill="white"/>
</clipPath>
</defs>
</svg>
