<svg width="204" height="71" viewBox="0 0 204 71" fill="none" xmlns="http://www.w3.org/2000/svg">
<g clip-path="url(#clip0_16_938)">
<g clip-path="url(#clip1_16_938)">
<path d="M118.753 25.4795V45.3318C121.201 45.4458 123.644 45.5835 126.079 45.746V49.9549C122.229 49.6983 118.363 49.5024 114.481 49.3688V25.4795H118.753ZM152.699 25.4818L147.137 38.3784L152.698 52.7298L152.692 52.7325C151.072 52.5014 149.45 52.2832 147.823 52.0741L144.7 44.0192L141.547 51.3263C140.053 51.1614 138.557 51.0053 137.057 50.859L142.48 38.2922L137.514 25.4818H142.135L144.916 32.6506L148.008 25.4818H152.699ZM99.8196 49.1602L99.8195 25.4818H111.744V29.7285H104.091V35.2325H109.882V39.4415H104.091V49.1592L99.8196 49.1602ZM83.8683 29.7289L83.8681 25.4815H97.081V29.7286H92.6104V49.2754C91.1845 49.3127 89.7602 49.3569 88.3387 49.4106V29.7289H83.8683ZM69.2644 50.6342V25.4823H81.1298V29.729H73.5356V35.4816C75.2803 35.4593 77.761 35.434 79.3043 35.4377V39.647C77.3724 39.623 75.1918 39.6735 73.5356 39.69V46.0622C76.0597 45.8637 78.5913 45.69 81.1298 45.5434V49.7527C77.1567 49.9816 73.2014 50.2764 69.2644 50.6342ZM60.8844 40.904L60.8841 25.4816H65.1561V51.0309C63.5944 51.1916 62.0358 51.3625 60.4798 51.543L55.5331 37.332V52.1517C54.1064 52.3375 52.6826 52.5312 51.2615 52.7335V25.4818H55.3212L60.8844 40.904ZM129.604 50.2088V25.4819H133.876V50.5616C132.453 50.435 131.03 50.3179 129.604 50.2088Z" fill="url(#paint0_linear_16_938)"/>
</g>
</g>
<defs>
<linearGradient id="paint0_linear_16_938" x1="101.98" y1="25.4795" x2="101.98" y2="52.7335" gradientUnits="userSpaceOnUse">
<stop stop-color="white"/>
<stop offset="1" stop-color="#999999"/>
</linearGradient>
<clipPath id="clip0_16_938">
<rect width="203.193" height="70.1613" fill="white" transform="translate(0.385498)"/>
</clipPath>
<clipPath id="clip1_16_938">
<rect width="101.438" height="101.438" fill="white" transform="translate(51.2627 -15.6387)"/>
</clipPath>
</defs>
</svg>
