<svg width="204" height="71" viewBox="0 0 204 71" fill="none" xmlns="http://www.w3.org/2000/svg">
<path d="M78.9847 50.6281C74.5949 49.3689 73.8682 46.7745 75.8597 45.2675C77.2946 44.3244 78.944 43.5034 80.6896 42.8858L80.8505 42.8359L93.8258 38.1835V43.5275L84.5247 46.928C82.8956 47.5549 82.6182 48.3888 83.9718 48.8363C84.6467 49.0083 85.4197 49.1081 86.2166 49.1081C87.3539 49.1081 88.443 48.9066 89.4508 48.5386L89.3861 48.5589L93.8647 46.928V51.7209C93.5873 51.7894 93.2729 51.8227 92.9641 51.8892C91.531 52.1407 89.8816 52.2849 88.1989 52.2849C84.9112 52.2849 81.7528 51.7339 78.809 50.7206L79.0124 50.7816L78.9847 50.6281ZM106.328 51.1755L120.877 45.9184C122.528 45.323 122.785 44.4742 121.444 44.0286C120.773 43.864 120.004 43.7697 119.211 43.7697C118.061 43.7697 116.955 43.9694 115.93 44.3337L115.999 44.3133L106.282 47.7786V42.2626L106.836 42.0666C108.778 41.4213 111.06 40.9202 113.414 40.6595L113.567 40.6447C114.433 40.5522 115.435 40.5004 116.45 40.5004C119.921 40.5004 123.249 41.1125 126.33 42.2368L126.13 42.172C130.4 43.5607 130.844 45.5726 129.771 46.9594C128.737 47.9894 127.487 48.8049 126.095 49.33L126.023 49.3541L106.28 56.5342V51.2291L106.328 51.1755ZM95.5696 13.6455V54.1914L104.615 57.1056V23.1001C104.615 21.5062 105.318 20.4411 106.45 20.8109C107.92 21.2269 108.207 22.6915 108.207 24.2891V37.8654C113.846 40.6225 118.286 37.8599 118.286 30.5817C118.286 23.102 115.684 19.7791 108.031 17.1163C104.73 15.9181 100.56 14.7236 96.2944 13.7786L95.5751 13.6455H95.5696Z" fill="url(#paint0_linear_16_940)"/>
<defs>
<linearGradient id="paint0_linear_16_940" x1="102.537" y1="13.6455" x2="102.537" y2="57.1056" gradientUnits="userSpaceOnUse">
<stop stop-color="white"/>
<stop offset="1" stop-color="#999999"/>
</linearGradient>
</defs>
</svg>
