<svg width="238" height="66" viewBox="0 0 238 66" fill="none" xmlns="http://www.w3.org/2000/svg">
<g clip-path="url(#clip0_284_471)">
<path fill-rule="evenodd" clip-rule="evenodd" d="M56.9947 37.0028C56.9947 37.2646 57.2072 37.477 57.4691 37.477H62.1331C62.3952 37.477 62.6076 37.2646 62.6076 37.0028V34.6725H64.9396C65.2015 34.6725 65.414 34.4602 65.414 34.1984V32.3422C65.414 32.0803 65.2015 31.8681 64.9396 31.8681H57.4691C57.2072 31.8681 56.9947 32.0803 56.9947 32.3422V37.0028ZM56.9947 26.7173C56.9947 26.4555 56.7822 26.2432 56.5203 26.2432H51.8563C51.5943 26.2432 51.3818 26.4555 51.3818 26.7173V31.3779C51.3818 31.6398 51.5943 31.852 51.8563 31.852H53.7138C53.9758 31.852 54.1883 31.6398 54.1883 31.3779V29.0476H56.5203C56.7822 29.0476 56.9947 28.8353 56.9947 28.5735V26.7173ZM59.8011 43.5438C59.8011 43.282 59.5887 43.0697 59.3267 43.0697H57.4691C57.2072 43.0697 56.9947 43.282 56.9947 43.5438V45.4C56.9947 45.6618 57.2072 45.8742 57.4691 45.8742H59.3267C59.5887 45.8742 59.8011 45.6618 59.8011 45.4V43.5438ZM93.0039 26.2432H88.3399C88.078 26.2432 87.8654 26.4555 87.8654 26.7173V28.5735C87.8654 28.8353 88.078 29.0476 88.3399 29.0476H90.6719V31.3779C90.6719 31.6398 90.8843 31.852 91.1463 31.852H93.0039C93.2659 31.852 93.4784 31.6398 93.4784 31.3779V26.7173C93.4784 26.4555 93.2659 26.2432 93.0039 26.2432ZM87.391 31.852H79.9206C79.6586 31.852 79.4461 32.0643 79.4461 32.3262V34.1824C79.4461 34.4441 79.6586 34.6564 79.9206 34.6564H82.2526V36.9868C82.2526 37.2485 82.465 37.4609 82.7271 37.4609H87.391C87.653 37.4609 87.8654 37.2485 87.8654 36.9868V32.3262C87.8654 32.0643 87.653 31.852 87.391 31.852ZM84.5846 45.8902H82.2526V43.5599C82.2526 43.2981 82.0402 43.0857 81.7782 43.0857H79.4461V37.951C79.4461 37.6892 79.2337 37.477 78.9717 37.477H76.6398V32.3422C76.6398 32.0803 76.4273 31.8681 76.1653 31.8681H68.6949C68.4329 31.8681 68.2204 32.0803 68.2204 32.3422V37.477H65.8885C65.6264 37.477 65.414 37.6892 65.414 37.951V43.0857H63.082C62.82 43.0857 62.6076 43.2981 62.6076 43.5599V45.8902H60.2756C60.0136 45.8902 59.8011 46.1025 59.8011 46.3643V48.2206C59.8011 48.4824 60.0136 48.6946 60.2756 48.6946H64.9396C65.2015 48.6946 65.414 48.4824 65.414 48.2206V45.8902H67.746C68.008 45.8902 68.2204 45.6779 68.2204 45.4161V40.2813H76.6398V45.4161C76.6398 45.6779 76.8522 45.8902 77.1141 45.8902H79.4461V48.2206C79.4461 48.4824 79.6586 48.6946 79.9206 48.6946H84.5846C84.8465 48.6946 85.0591 48.4824 85.0591 48.2206V46.3643C85.0591 46.1025 84.8465 45.8902 84.5846 45.8902ZM87.391 43.0697H85.5335C85.2715 43.0697 85.0591 43.282 85.0591 43.5438V45.4C85.0591 45.6618 85.2715 45.8742 85.5335 45.8742H87.391C87.653 45.8742 87.8654 45.6618 87.8654 45.4V43.5438C87.8654 43.282 87.653 43.0697 87.391 43.0697Z" fill="url(#paint0_linear_284_471)"/>
<path fill-rule="evenodd" clip-rule="evenodd" d="M63.0816 26.2425H81.7779C82.0398 26.2425 82.2522 26.0301 82.2522 25.7681V23.9106C82.2522 23.6485 82.0398 23.4361 81.7779 23.4361H79.4458V21.1041C79.4458 20.8421 79.2334 20.6297 78.9714 20.6297H76.6394V18.2977C76.6394 18.0357 76.427 17.8232 76.1649 17.8232H68.6945C68.4325 17.8232 68.2201 18.0357 68.2201 18.2977V20.6297H65.8881C65.6261 20.6297 65.4136 20.8421 65.4136 21.1041V23.4361H63.0816C62.8197 23.4361 62.6072 23.6485 62.6072 23.9106V25.7681C62.6072 26.0301 62.8197 26.2425 63.0816 26.2425Z" fill="url(#paint1_linear_284_471)"/>
<path fill-rule="evenodd" clip-rule="evenodd" d="M141.923 31.572C140.447 31.572 139.113 32.1794 138.174 33.1534C137.258 32.1757 135.952 31.5645 134.504 31.5645C133.692 31.5645 132.864 31.8618 132.225 32.2915V32.1491C132.225 31.9438 132.054 31.7876 131.856 31.7876H129.797C129.6 31.7876 129.428 31.9438 129.428 32.1491V42.4062C129.428 42.6116 129.599 42.7678 129.797 42.7678H131.861C132.058 42.7678 132.23 42.6116 132.23 42.4062V36.5821C132.23 35.3271 133.249 34.3115 134.504 34.3115C135.761 34.3115 136.779 35.3284 136.779 36.5821V42.4062C136.779 42.6116 136.949 42.7678 137.148 42.7678H139.163C139.168 42.7678 139.172 42.7678 139.175 42.7678H139.22C139.417 42.7678 139.589 42.6116 139.589 42.4062V36.5859C139.589 35.3371 140.63 34.3165 141.923 34.3165C143.216 34.3165 144.257 35.3371 144.257 36.5859V42.405C144.257 42.6103 144.427 42.7665 144.626 42.7665H146.697C146.895 42.7665 147.066 42.6103 147.066 42.405V36.5859C147.065 33.8125 144.758 31.572 141.923 31.572ZM157.364 37.0811C156.578 36.6035 155.569 36.3742 154.689 36.1751L154.671 36.1713C154.033 36.0264 153.471 35.8979 153.067 35.7089C152.667 35.5224 152.485 35.3082 152.485 35.0133C152.485 34.7588 152.581 34.5332 152.809 34.3555C153.042 34.1728 153.429 34.0317 154.026 33.9965C155.044 33.9965 155.832 34.0204 156.365 34.0443C156.633 34.0557 156.836 34.0683 156.971 34.0771C157.04 34.0821 157.091 34.0847 157.126 34.0872C157.143 34.0884 157.156 34.0897 157.163 34.0897L157.172 34.0909H157.175L157.184 34.0922H157.192C157.35 34.0922 157.494 34.062 157.593 33.9599C157.679 33.8691 157.698 33.7533 157.705 33.6965C157.705 33.6928 157.706 33.689 157.706 33.6865C157.71 33.6625 157.713 33.6448 157.716 33.6285L157.722 33.6071V32.3432C157.722 32.1895 157.711 32.0483 157.652 31.94C157.579 31.8052 157.457 31.7623 157.358 31.7409L157.348 31.7396L157.34 31.7384H157.336L157.326 31.7371C157.318 31.7359 157.305 31.7346 157.289 31.7333C157.254 31.7296 157.204 31.7246 157.137 31.7182C157.001 31.7057 156.8 31.6893 156.527 31.6729C155.981 31.6401 155.153 31.6074 154.018 31.6074H154.014H154.011C152.559 31.6616 151.457 32.0647 150.716 32.7023C149.972 33.3412 149.606 34.2031 149.606 35.1355C149.606 35.7492 149.747 36.252 149.997 36.6665C150.246 37.0798 150.595 37.3936 150.995 37.6394C151.782 38.1219 152.789 38.3551 153.667 38.558L153.685 38.5617C154.325 38.7091 154.887 38.8401 155.292 39.0317C155.691 39.2207 155.876 39.4387 155.876 39.7424C155.876 39.9957 155.759 40.2212 155.475 40.3938C155.179 40.5728 154.7 40.6925 153.996 40.6925C153.195 40.6925 152.321 40.6068 151.644 40.5199C151.305 40.4771 151.019 40.4329 150.815 40.4002C150.714 40.3838 150.634 40.3699 150.579 40.3611C150.565 40.3586 150.551 40.3561 150.54 40.3548C150.532 40.3535 150.522 40.3522 150.516 40.351L150.501 40.3485L150.496 40.3472L150.479 40.3435H150.46C150.317 40.3435 150.181 40.3699 150.084 40.4669C149.999 40.5514 149.981 40.6635 149.973 40.7152C149.972 40.7189 149.972 40.7228 149.972 40.7253C149.966 40.753 149.963 40.7706 149.959 40.7883L149.954 40.8084L149.875 42.2348V42.2399C149.875 42.3331 149.888 42.444 149.939 42.5436C149.991 42.6494 150.084 42.7439 150.227 42.7804L150.232 42.7817L150.238 42.7829L150.243 42.7502C150.238 42.7829 150.238 42.7829 150.238 42.7829L150.242 42.7842C150.244 42.7854 150.25 42.7854 150.256 42.7867C150.267 42.7893 150.285 42.7918 150.308 42.7968C150.353 42.8056 150.419 42.817 150.506 42.8309C150.68 42.8586 150.934 42.8951 151.263 42.933C151.917 43.0072 152.862 43.0804 154.023 43.0804H154.033C154.176 43.0816 155.336 43.0904 156.469 42.6657C157.037 42.4528 157.61 42.1264 158.042 41.625C158.478 41.1197 158.76 40.4455 158.76 39.561C158.76 38.9536 158.617 38.4546 158.367 38.0439C158.114 37.633 157.764 37.323 157.364 37.0811ZM180.64 31.7938C179.487 31.7938 178.409 32.1177 177.504 32.6784V27.9789C177.504 27.7735 177.334 27.6172 177.135 27.6172H175.068C174.872 27.6172 174.7 27.7735 174.7 27.9789V42.4087C174.7 42.6141 174.871 42.7704 175.068 42.7704H177.135C177.333 42.7704 177.504 42.6141 177.504 42.4087V41.9286C178.358 42.5939 179.49 43.0791 180.64 43.0791C183.855 43.0791 186.472 40.5589 186.472 37.4365C186.472 34.314 183.855 31.7938 180.64 31.7938ZM180.64 40.3548C178.973 40.3548 177.62 39.0481 177.62 37.4365C177.62 35.8248 178.972 34.5181 180.64 34.5181C182.307 34.5181 183.659 35.8248 183.659 37.4365C183.659 39.0481 182.309 40.3548 180.64 40.3548ZM171.521 31.7938H169.45C169.251 31.7938 169.08 31.9501 169.08 32.1555V38.1206C169.08 39.3517 168.042 40.3611 166.747 40.3611C166.741 40.3611 166.735 40.3611 166.729 40.3611C166.723 40.3611 166.718 40.3611 166.711 40.3611C165.415 40.3611 164.377 39.3517 164.377 38.1206V32.1555C164.377 31.9501 164.207 31.7938 164.009 31.7938H161.938C161.739 31.7938 161.568 31.9501 161.568 32.1555V38.1206C161.568 40.8651 163.878 43.0779 166.711 43.0779C166.718 43.0779 166.723 43.0779 166.729 43.0779C166.735 43.0779 166.741 43.0779 166.747 43.0779C169.58 43.0779 171.89 40.8651 171.89 38.1206V32.1555C171.89 31.9501 171.719 31.7938 171.521 31.7938ZM112.104 37.0811C111.318 36.6035 110.309 36.3742 109.429 36.1751L109.412 36.1713C108.773 36.0264 108.212 35.8979 107.808 35.7089C107.407 35.5224 107.226 35.3082 107.226 35.0133C107.226 34.7588 107.322 34.5332 107.549 34.3555C107.783 34.1728 108.169 34.0317 108.766 33.9965C109.784 33.9965 110.572 34.0204 111.105 34.0443C111.373 34.0557 111.577 34.0683 111.712 34.0771C111.78 34.0821 111.832 34.0847 111.866 34.0872C111.883 34.0884 111.896 34.0897 111.904 34.0897L111.912 34.0909H111.915L111.924 34.0922H111.933C112.091 34.0922 112.235 34.062 112.333 33.9599C112.42 33.8691 112.438 33.7533 112.445 33.6965C112.445 33.6928 112.447 33.689 112.447 33.6865C112.451 33.6625 112.453 33.6448 112.457 33.6285L112.462 33.6071V32.3432C112.462 32.1895 112.452 32.0483 112.392 31.94C112.319 31.8052 112.197 31.7623 112.098 31.7409L112.089 31.7396L112.08 31.7384H112.077L112.067 31.7371C112.058 31.7359 112.045 31.7346 112.029 31.7333C111.995 31.7296 111.944 31.7246 111.877 31.7182C111.742 31.7057 111.54 31.6893 111.267 31.6729C110.722 31.6401 109.893 31.6074 108.759 31.6074H108.755H108.751C107.299 31.6616 106.197 32.0647 105.456 32.7023C104.713 33.3412 104.347 34.2031 104.347 35.1355C104.347 35.7492 104.489 36.252 104.739 36.6665C104.988 37.0798 105.337 37.3936 105.736 37.6394C106.523 38.1219 107.531 38.3551 108.409 38.558L108.427 38.5617C109.067 38.7091 109.629 38.8401 110.033 39.0317C110.432 39.2207 110.618 39.4387 110.618 39.7424C110.618 39.9957 110.5 40.2212 110.216 40.3938C109.921 40.5728 109.442 40.6925 108.737 40.6925C107.937 40.6925 107.063 40.6068 106.386 40.5199C106.047 40.4771 105.76 40.4329 105.557 40.4002C105.456 40.3838 105.375 40.3699 105.321 40.3611C105.306 40.3586 105.293 40.3561 105.282 40.3548C105.273 40.3535 105.264 40.3522 105.258 40.351L105.243 40.3485L105.238 40.3472L105.22 40.3435H105.201C105.057 40.3435 104.921 40.3699 104.825 40.4669C104.74 40.5514 104.721 40.6635 104.713 40.7152C104.712 40.7189 104.712 40.7228 104.712 40.7253C104.707 40.753 104.703 40.7706 104.7 40.7883L104.695 40.8084L104.612 42.2335V42.2386C104.612 42.3318 104.626 42.4428 104.677 42.5422C104.729 42.6482 104.822 42.7426 104.965 42.7792L104.97 42.7804L104.975 42.7817L104.981 42.749C104.975 42.7817 104.975 42.7817 104.975 42.7817H104.976L104.98 42.7829C104.983 42.7842 104.988 42.7842 104.994 42.7854C105.005 42.788 105.023 42.7906 105.046 42.7956C105.091 42.8044 105.157 42.8157 105.244 42.8295C105.418 42.8573 105.672 42.8939 106 42.9316C106.655 43.006 107.599 43.0791 108.761 43.0791H108.77C108.913 43.0804 110.074 43.0891 111.207 42.6645C111.775 42.4516 112.348 42.1252 112.78 41.6237C113.216 41.1184 113.498 40.4443 113.498 39.5597C113.498 38.9523 113.355 38.4534 113.105 38.0425C112.855 37.633 112.505 37.323 112.104 37.0811ZM126.253 31.7938H124.182C123.984 31.7938 123.813 31.9501 123.813 32.1555V38.1206C123.813 39.3517 122.775 40.3611 121.479 40.3611C121.473 40.3611 121.468 40.3611 121.461 40.3611C121.455 40.3611 121.45 40.3611 121.444 40.3611C120.148 40.3611 119.11 39.3517 119.11 38.1206V32.1555C119.11 31.9501 118.939 31.7938 118.741 31.7938H116.67C116.471 31.7938 116.301 31.9501 116.301 32.1555V38.1206C116.301 40.8651 118.61 43.0779 121.444 43.0779C121.45 43.0779 121.455 43.0779 121.461 43.0779C121.468 43.0779 121.473 43.0779 121.479 43.0779C124.312 43.0779 126.622 40.8651 126.622 38.1206V32.1555C126.622 31.9501 126.452 31.7938 126.253 31.7938Z" fill="url(#paint2_linear_284_471)"/>
</g>
<defs>
<linearGradient id="paint0_linear_284_471" x1="69.4192" y1="23.0859" x2="71.0542" y2="61.6176" gradientUnits="userSpaceOnUse">
<stop stop-color="white"/>
<stop offset="1" stop-color="#999999"/>
</linearGradient>
<linearGradient id="paint1_linear_284_471" x1="71.0246" y1="16.6393" x2="71.5176" y2="31.0979" gradientUnits="userSpaceOnUse">
<stop stop-color="white"/>
<stop offset="1" stop-color="#999999"/>
</linearGradient>
<linearGradient id="paint2_linear_284_471" x1="139.536" y1="25.4427" x2="139.934" y2="52.0231" gradientUnits="userSpaceOnUse">
<stop stop-color="white"/>
<stop offset="1" stop-color="#999999"/>
</linearGradient>
<clipPath id="clip0_284_471">
<rect width="136.025" height="30.871" fill="white" transform="translate(51.3821 17.8232)"/>
</clipPath>
</defs>
</svg>
