<svg width="204" height="71" viewBox="0 0 204 71" fill="none" xmlns="http://www.w3.org/2000/svg">
<path fill-rule="evenodd" clip-rule="evenodd" d="M115.907 32.5614C108.414 28.1121 96.0545 27.7024 88.8993 29.8736C87.7509 30.22 86.5375 29.5737 86.1888 28.423C85.8401 27.2746 86.4887 26.0611 87.637 25.7124C95.8499 23.2181 109.5 23.6991 118.127 28.8202C119.159 29.4339 119.498 30.7688 118.885 31.8009C118.276 32.8331 116.937 33.1751 115.907 32.5614ZM115.663 39.1516C115.137 40.0048 114.021 40.2717 113.168 39.7487C106.922 35.9084 97.3958 34.7972 90.0058 37.0404C89.0458 37.3287 88.0345 36.7893 87.744 35.8316C87.4557 34.8738 87.995 33.8622 88.9528 33.5716C97.3935 31.0099 107.889 32.2515 115.065 36.6613C115.918 37.1843 116.186 38.3008 115.663 39.1516ZM112.817 45.4808C112.399 46.1642 111.509 46.3805 110.825 45.9621C105.367 42.6262 98.4953 41.8734 90.4033 43.7214C89.6246 43.9004 88.8458 43.4117 88.6692 42.6306C88.4902 41.8519 88.976 41.0764 89.7594 40.8974C98.6139 38.8726 106.208 39.7438 112.336 43.4887C113.02 43.9072 113.236 44.7973 112.817 45.4808ZM102.157 11.9531C89.3177 11.9531 78.9104 22.3605 78.9104 35.1993C78.9104 48.0382 89.3177 58.4455 102.157 58.4455C114.995 58.4455 125.403 48.0382 125.403 35.1993C125.403 22.3628 114.995 11.9531 102.157 11.9531Z" fill="url(#paint0_linear_16_1218)"/>
<defs>
<linearGradient id="paint0_linear_16_1218" x1="102.157" y1="11.9531" x2="102.157" y2="58.4455" gradientUnits="userSpaceOnUse">
<stop stop-color="white"/>
<stop offset="1" stop-color="#999999"/>
</linearGradient>
</defs>
</svg>
