<svg width="700" height="797" viewBox="0 0 700 797" fill="none" xmlns="http://www.w3.org/2000/svg">
<g filter="url(#filter0_f_62_146)">
<rect x="317.345" y="376.127" width="55.5965" height="55.5965" stroke="#727272" stroke-width="1.13462"/>
</g>
<rect x="317.345" y="376.127" width="55.5965" height="55.5965" fill="url(#paint0_linear_62_146)"/>
<rect x="317.345" y="376.127" width="55.5965" height="55.5965" fill="url(#paint1_radial_62_146)" fill-opacity="0.2"/>
<rect x="317.345" y="376.127" width="55.5965" height="55.5965" stroke="#727272" stroke-width="1.13462"/>
<rect x="193.104" y="376.695" width="54.4619" height="54.4619" stroke="#727272" stroke-width="2.26924"/>
<rect x="193.104" y="501.503" width="54.4619" height="54.4619" stroke="#727272" stroke-width="2.26924"/>
<rect x="193.104" y="251.886" width="54.4619" height="54.4619" stroke="#727272" stroke-width="2.26924"/>
<rect x="193.104" y="127.077" width="54.4619" height="54.4619" stroke="#727272" stroke-width="2.26924"/>
<rect x="68.296" y="376.695" width="54.4619" height="54.4619" stroke="#727272" stroke-width="2.26924"/>
<rect x="68.296" y="501.503" width="54.4619" height="54.4619" stroke="#727272" stroke-width="2.26924"/>
<rect x="68.296" y="251.886" width="54.4619" height="54.4619" stroke="#727272" stroke-width="2.26924"/>
<rect x="68.2962" y="127.077" width="54.4619" height="54.4619" stroke="#727272" stroke-width="2.26924"/>
<rect x="567.53" y="376.695" width="54.4619" height="54.4619" stroke="#727272" stroke-width="2.26924"/>
<rect x="567.53" y="501.503" width="54.4619" height="54.4619" stroke="#727272" stroke-width="2.26924"/>
<rect x="567.53" y="251.886" width="54.4619" height="54.4619" stroke="#727272" stroke-width="2.26924"/>
<rect x="567.53" y="127.077" width="54.4619" height="54.4619" stroke="#727272" stroke-width="2.26924"/>
<rect x="442.721" y="376.695" width="54.4619" height="54.4619" stroke="#727272" stroke-width="2.26924"/>
<rect x="442.721" y="501.503" width="54.4619" height="54.4619" stroke="#727272" stroke-width="2.26924"/>
<rect x="442.721" y="251.886" width="54.4619" height="54.4619" stroke="#727272" stroke-width="2.26924"/>
<rect x="442.721" y="127.077" width="54.4619" height="54.4619" stroke="#727272" stroke-width="2.26924"/>
<rect x="317.913" y="501.503" width="54.4619" height="54.4619" stroke="#727272" stroke-width="2.26924"/>
<rect x="317.913" y="251.886" width="54.4619" height="54.4619" stroke="#727272" stroke-width="2.26924"/>
<rect x="317.913" y="127.077" width="54.4619" height="54.4619" stroke="#727272" stroke-width="2.26924"/>
<rect x="193.104" y="626.311" width="54.4619" height="54.4619" stroke="#727272" stroke-width="2.26924"/>
<rect x="68.296" y="626.311" width="54.4619" height="54.4619" stroke="#727272" stroke-width="2.26924"/>
<rect x="567.53" y="626.311" width="54.4619" height="54.4619" stroke="#727272" stroke-width="2.26924"/>
<rect x="442.721" y="626.311" width="54.4619" height="54.4619" stroke="#727272" stroke-width="2.26924"/>
<rect x="317.913" y="626.311" width="54.4619" height="54.4619" stroke="#727272" stroke-width="2.26924"/>
<rect width="700" height="796.765" fill="url(#paint2_radial_62_146)"/>
<path d="M346.279 233.732L346.279 45.3848" stroke="url(#paint3_linear_62_146)" stroke-width="2.26924"/>
<g filter="url(#filter1_f_62_146)">
<circle cx="343.228" cy="284.228" r="52.8748" transform="rotate(-120 343.228 284.228)" fill="url(#paint4_linear_62_146)"/>
</g>
<mask id="mask0_62_146" style="mask-type:alpha" maskUnits="userSpaceOnUse" x="292" y="233" width="106" height="107">
<circle cx="344.984" cy="286.602" r="52.7139" transform="rotate(-33.3728 344.984 286.602)" fill="#C4C4C4"/>
</mask>
<g mask="url(#mask0_62_146)">
<circle cx="343.034" cy="284.033" r="54.7517" transform="rotate(-33.3728 343.034 284.033)" fill="#F05A2A"/>
<g filter="url(#filter2_f_62_146)">
<circle cx="345.449" cy="315.191" r="49.4964" transform="rotate(-33.3728 345.449 315.191)" fill="#B93A11"/>
</g>
<g filter="url(#filter3_f_62_146)">
<circle cx="362.366" cy="252.549" r="39.093" transform="rotate(-33.3728 362.366 252.549)" fill="#F05A2A"/>
</g>
<g filter="url(#filter4_f_62_146)">
<circle cx="332.045" cy="338.887" r="39.093" transform="rotate(-33.3728 332.045 338.887)" fill="url(#paint5_linear_62_146)"/>
</g>
<g filter="url(#filter5_f_62_146)">
<circle cx="411.492" cy="265.909" r="43.4903" transform="rotate(-33.3728 411.492 265.909)" fill="#40C0FF"/>
</g>
<g filter="url(#filter6_f_62_146)">
<circle cx="377.807" cy="332.534" r="42.9541" transform="rotate(-33.3728 377.807 332.534)" fill="#F05A2A"/>
</g>
<g filter="url(#filter7_f_62_146)">
<circle cx="360.577" cy="357.946" r="29.8158" transform="rotate(-33.3728 360.577 357.946)" fill="#F05A2A"/>
</g>
</g>
<defs>
<filter id="filter0_f_62_146" x="230.547" y="289.329" width="229.194" height="229.194" filterUnits="userSpaceOnUse" color-interpolation-filters="sRGB">
<feFlood flood-opacity="0" result="BackgroundImageFix"/>
<feBlend mode="normal" in="SourceGraphic" in2="BackgroundImageFix" result="shape"/>
<feGaussianBlur stdDeviation="43.1156" result="effect1_foregroundBlur_62_146"/>
</filter>
<filter id="filter1_f_62_146" x="278.851" y="219.851" width="128.755" height="128.755" filterUnits="userSpaceOnUse" color-interpolation-filters="sRGB">
<feFlood flood-opacity="0" result="BackgroundImageFix"/>
<feBlend mode="normal" in="SourceGraphic" in2="BackgroundImageFix" result="shape"/>
<feGaussianBlur stdDeviation="5.74692" result="effect1_foregroundBlur_62_146"/>
</filter>
<filter id="filter2_f_62_146" x="269.175" y="238.917" width="152.548" height="152.548" filterUnits="userSpaceOnUse" color-interpolation-filters="sRGB">
<feFlood flood-opacity="0" result="BackgroundImageFix"/>
<feBlend mode="normal" in="SourceGraphic" in2="BackgroundImageFix" result="shape"/>
<feGaussianBlur stdDeviation="13.3861" result="effect1_foregroundBlur_62_146"/>
</filter>
<filter id="filter3_f_62_146" x="296.776" y="186.96" width="131.179" height="131.179" filterUnits="userSpaceOnUse" color-interpolation-filters="sRGB">
<feFlood flood-opacity="0" result="BackgroundImageFix"/>
<feBlend mode="normal" in="SourceGraphic" in2="BackgroundImageFix" result="shape"/>
<feGaussianBlur stdDeviation="13.2459" result="effect1_foregroundBlur_62_146"/>
</filter>
<filter id="filter4_f_62_146" x="266.455" y="273.298" width="131.179" height="131.179" filterUnits="userSpaceOnUse" color-interpolation-filters="sRGB">
<feFlood flood-opacity="0" result="BackgroundImageFix"/>
<feBlend mode="normal" in="SourceGraphic" in2="BackgroundImageFix" result="shape"/>
<feGaussianBlur stdDeviation="13.2459" result="effect1_foregroundBlur_62_146"/>
</filter>
<filter id="filter5_f_62_146" x="333.795" y="188.213" width="155.393" height="155.393" filterUnits="userSpaceOnUse" color-interpolation-filters="sRGB">
<feFlood flood-opacity="0" result="BackgroundImageFix"/>
<feBlend mode="normal" in="SourceGraphic" in2="BackgroundImageFix" result="shape"/>
<feGaussianBlur stdDeviation="17.1006" result="effect1_foregroundBlur_62_146"/>
</filter>
<filter id="filter6_f_62_146" x="300.647" y="255.374" width="154.32" height="154.32" filterUnits="userSpaceOnUse" color-interpolation-filters="sRGB">
<feFlood flood-opacity="0" result="BackgroundImageFix"/>
<feBlend mode="normal" in="SourceGraphic" in2="BackgroundImageFix" result="shape"/>
<feGaussianBlur stdDeviation="17.1006" result="effect1_foregroundBlur_62_146"/>
</filter>
<filter id="filter7_f_62_146" x="296.557" y="293.926" width="128.041" height="128.041" filterUnits="userSpaceOnUse" color-interpolation-filters="sRGB">
<feFlood flood-opacity="0" result="BackgroundImageFix"/>
<feBlend mode="normal" in="SourceGraphic" in2="BackgroundImageFix" result="shape"/>
<feGaussianBlur stdDeviation="17.1006" result="effect1_foregroundBlur_62_146"/>
</filter>
<linearGradient id="paint0_linear_62_146" x1="316.778" y1="375.56" x2="373.509" y2="432.291" gradientUnits="userSpaceOnUse">
<stop/>
<stop offset="1" stop-color="#F05A2A"/>
</linearGradient>
<radialGradient id="paint1_radial_62_146" cx="0" cy="0" r="1" gradientUnits="userSpaceOnUse" gradientTransform="translate(345.144 403.926) rotate(-45) scale(52.1494)">
<stop offset="0.418978" stop-color="white" stop-opacity="0"/>
<stop offset="1" stop-color="#40C0FF"/>
</radialGradient>
<radialGradient id="paint2_radial_62_146" cx="0" cy="0" r="1" gradientUnits="userSpaceOnUse" gradientTransform="translate(350 398.382) rotate(90) scale(383.082 371.628)">
<stop stop-color="#010101" stop-opacity="0"/>
<stop offset="1" stop-color="#010101"/>
</radialGradient>
<linearGradient id="paint3_linear_62_146" x1="346.779" y1="45.3848" x2="346" y2="170" gradientUnits="userSpaceOnUse">
<stop stop-opacity="0"/>
<stop offset="1" stop-color="#F05A2A"/>
</linearGradient>
<linearGradient id="paint4_linear_62_146" x1="321.018" y1="244.669" x2="355.107" y2="307.489" gradientUnits="userSpaceOnUse">
<stop stop-color="#F05A2A" stop-opacity="0"/>
<stop offset="1" stop-color="#4E4E4E"/>
</linearGradient>
<linearGradient id="paint5_linear_62_146" x1="318.477" y1="357.281" x2="332.045" y2="377.98" gradientUnits="userSpaceOnUse">
<stop stop-color="#F05A2A"/>
<stop offset="0.0989583" stop-color="#F05A2A" stop-opacity="0"/>
</linearGradient>
</defs>
</svg>
